<mxfile host="app.diagrams.net" modified="2024-09-18T09:18:28.110Z" agent="Mozilla/5.0 (Windows NT 10.0; Win64; x64) AppleWebKit/537.36 (KHTML, like Gecko) Chrome/126.0.0.0 Safari/537.36 OPR/112.0.0.0" etag="bvEuqWiaqgesBsWcGkxs" version="24.5.2" type="device" pages="6">
  <diagram id="dAbLrMI_tqYq6oJa4dcf" name="Сторінка-6">
    <mxGraphModel dx="1380" dy="781" grid="1" gridSize="10" guides="1" tooltips="1" connect="1" arrows="1" fold="1" page="1" pageScale="1" pageWidth="827" pageHeight="1169" math="0" shadow="0">
      <root>
        <mxCell id="0" />
        <mxCell id="1" parent="0" />
        <mxCell id="hDm-lhfCTn2AZvQiIt91-3" style="edgeStyle=orthogonalEdgeStyle;rounded=0;orthogonalLoop=1;jettySize=auto;html=1;entryX=0.5;entryY=1;entryDx=0;entryDy=0;" edge="1" parent="1" source="hDm-lhfCTn2AZvQiIt91-1" target="hDm-lhfCTn2AZvQiIt91-2">
          <mxGeometry relative="1" as="geometry" />
        </mxCell>
        <mxCell id="hDm-lhfCTn2AZvQiIt91-1" value="Database" style="shape=cylinder3;whiteSpace=wrap;html=1;boundedLbl=1;backgroundOutline=1;size=15;" vertex="1" parent="1">
          <mxGeometry x="70" y="390" width="60" height="80" as="geometry" />
        </mxCell>
        <mxCell id="hDm-lhfCTn2AZvQiIt91-12" style="edgeStyle=orthogonalEdgeStyle;rounded=0;orthogonalLoop=1;jettySize=auto;html=1;entryX=0.5;entryY=1;entryDx=0;entryDy=0;" edge="1" parent="1" source="hDm-lhfCTn2AZvQiIt91-2" target="hDm-lhfCTn2AZvQiIt91-6">
          <mxGeometry relative="1" as="geometry" />
        </mxCell>
        <mxCell id="hDm-lhfCTn2AZvQiIt91-2" value="Persistence" style="ellipse;whiteSpace=wrap;html=1;" vertex="1" parent="1">
          <mxGeometry x="40" y="260" width="120" height="80" as="geometry" />
        </mxCell>
        <mxCell id="hDm-lhfCTn2AZvQiIt91-11" style="edgeStyle=orthogonalEdgeStyle;rounded=0;orthogonalLoop=1;jettySize=auto;html=1;entryX=0;entryY=0.5;entryDx=0;entryDy=0;" edge="1" parent="1" source="hDm-lhfCTn2AZvQiIt91-6" target="hDm-lhfCTn2AZvQiIt91-8">
          <mxGeometry relative="1" as="geometry" />
        </mxCell>
        <mxCell id="hDm-lhfCTn2AZvQiIt91-6" value="Infrastructure" style="ellipse;whiteSpace=wrap;html=1;" vertex="1" parent="1">
          <mxGeometry x="40" y="140" width="120" height="80" as="geometry" />
        </mxCell>
        <mxCell id="hDm-lhfCTn2AZvQiIt91-14" style="edgeStyle=orthogonalEdgeStyle;rounded=0;orthogonalLoop=1;jettySize=auto;html=1;" edge="1" parent="1" source="hDm-lhfCTn2AZvQiIt91-8" target="hDm-lhfCTn2AZvQiIt91-13">
          <mxGeometry relative="1" as="geometry" />
        </mxCell>
        <mxCell id="hDm-lhfCTn2AZvQiIt91-8" value="Core" style="ellipse;whiteSpace=wrap;html=1;" vertex="1" parent="1">
          <mxGeometry x="220" y="140" width="120" height="80" as="geometry" />
        </mxCell>
        <mxCell id="hDm-lhfCTn2AZvQiIt91-16" style="edgeStyle=orthogonalEdgeStyle;rounded=0;orthogonalLoop=1;jettySize=auto;html=1;" edge="1" parent="1" source="hDm-lhfCTn2AZvQiIt91-13" target="hDm-lhfCTn2AZvQiIt91-15">
          <mxGeometry relative="1" as="geometry" />
        </mxCell>
        <mxCell id="hDm-lhfCTn2AZvQiIt91-13" value="Web" style="ellipse;whiteSpace=wrap;html=1;" vertex="1" parent="1">
          <mxGeometry x="380" y="140" width="120" height="80" as="geometry" />
        </mxCell>
        <mxCell id="hDm-lhfCTn2AZvQiIt91-15" value="client" style="ellipse;whiteSpace=wrap;html=1;" vertex="1" parent="1">
          <mxGeometry x="530" y="140" width="120" height="80" as="geometry" />
        </mxCell>
      </root>
    </mxGraphModel>
  </diagram>
  <diagram name="Сторінка-1" id="4Yk-IFdAIJxi4n0sgdLl">
    <mxGraphModel dx="3861" dy="1950" grid="1" gridSize="10" guides="1" tooltips="1" connect="1" arrows="1" fold="1" page="1" pageScale="1" pageWidth="827" pageHeight="1169" math="0" shadow="0">
      <root>
        <mxCell id="0" />
        <mxCell id="1" parent="0" />
        <mxCell id="xT-ObQqMbLw8H_Po4eMm-7" style="edgeStyle=orthogonalEdgeStyle;rounded=0;orthogonalLoop=1;jettySize=auto;html=1;entryX=0.5;entryY=0;entryDx=0;entryDy=0;endArrow=none;endFill=0;" parent="1" source="xT-ObQqMbLw8H_Po4eMm-1" target="xT-ObQqMbLw8H_Po4eMm-5" edge="1">
          <mxGeometry relative="1" as="geometry">
            <Array as="points">
              <mxPoint x="420" y="170" />
              <mxPoint x="200" y="170" />
            </Array>
          </mxGeometry>
        </mxCell>
        <mxCell id="xT-ObQqMbLw8H_Po4eMm-8" style="edgeStyle=orthogonalEdgeStyle;rounded=0;orthogonalLoop=1;jettySize=auto;html=1;endArrow=none;endFill=0;" parent="1" source="xT-ObQqMbLw8H_Po4eMm-1" target="xT-ObQqMbLw8H_Po4eMm-6" edge="1">
          <mxGeometry relative="1" as="geometry">
            <Array as="points">
              <mxPoint x="620" y="170" />
            </Array>
          </mxGeometry>
        </mxCell>
        <mxCell id="xT-ObQqMbLw8H_Po4eMm-1" value="&lt;font face=&quot;Helvetica&quot; style=&quot;&quot;&gt;Бажаючі пограти в ЩДК не мають єдиної мультимовної бази&amp;nbsp;&lt;span style=&quot;line-height: 150%;&quot;&gt;&lt;font style=&quot;font-size: 12px;&quot;&gt;для &lt;/font&gt;накопичення, зберігання та організації питань-відповідей для інтелектуальної&lt;br&gt;гри &quot;Що? Де? Коли?&quot;&lt;/span&gt;&lt;/font&gt;" style="rounded=1;whiteSpace=wrap;html=1;" parent="1" vertex="1">
          <mxGeometry x="290" y="50" width="260" height="100" as="geometry" />
        </mxCell>
        <mxCell id="xT-ObQqMbLw8H_Po4eMm-5" value="недостатня кількість питань українською мовою" style="rounded=1;whiteSpace=wrap;html=1;" parent="1" vertex="1">
          <mxGeometry x="120" y="270" width="160" height="60" as="geometry" />
        </mxCell>
        <mxCell id="xT-ObQqMbLw8H_Po4eMm-11" style="edgeStyle=orthogonalEdgeStyle;rounded=0;orthogonalLoop=1;jettySize=auto;html=1;endArrow=none;endFill=0;" parent="1" source="xT-ObQqMbLw8H_Po4eMm-6" target="xT-ObQqMbLw8H_Po4eMm-9" edge="1">
          <mxGeometry relative="1" as="geometry">
            <Array as="points">
              <mxPoint x="620" y="270" />
              <mxPoint x="484" y="270" />
            </Array>
          </mxGeometry>
        </mxCell>
        <mxCell id="xT-ObQqMbLw8H_Po4eMm-12" style="edgeStyle=orthogonalEdgeStyle;rounded=0;orthogonalLoop=1;jettySize=auto;html=1;exitX=0.5;exitY=1;exitDx=0;exitDy=0;endArrow=none;endFill=0;" parent="1" source="xT-ObQqMbLw8H_Po4eMm-6" target="xT-ObQqMbLw8H_Po4eMm-10" edge="1">
          <mxGeometry relative="1" as="geometry">
            <Array as="points" />
          </mxGeometry>
        </mxCell>
        <mxCell id="xT-ObQqMbLw8H_Po4eMm-14" style="edgeStyle=orthogonalEdgeStyle;rounded=0;orthogonalLoop=1;jettySize=auto;html=1;entryX=0.5;entryY=0;entryDx=0;entryDy=0;endArrow=none;endFill=0;" parent="1" source="xT-ObQqMbLw8H_Po4eMm-6" target="xT-ObQqMbLw8H_Po4eMm-13" edge="1">
          <mxGeometry relative="1" as="geometry">
            <Array as="points">
              <mxPoint x="620" y="270" />
              <mxPoint x="760" y="270" />
            </Array>
          </mxGeometry>
        </mxCell>
        <mxCell id="xT-ObQqMbLw8H_Po4eMm-6" value="необхідність витрачати велику кількість часу на формування переліку питань" style="rounded=1;whiteSpace=wrap;html=1;" parent="1" vertex="1">
          <mxGeometry x="550" y="200" width="140" height="60" as="geometry" />
        </mxCell>
        <mxCell id="xT-ObQqMbLw8H_Po4eMm-9" value="наявність дублікатів питань" style="rounded=1;whiteSpace=wrap;html=1;" parent="1" vertex="1">
          <mxGeometry x="424" y="340" width="120" height="60" as="geometry" />
        </mxCell>
        <mxCell id="xT-ObQqMbLw8H_Po4eMm-10" value="відсутність єдиного джерела інформації" style="rounded=1;whiteSpace=wrap;html=1;" parent="1" vertex="1">
          <mxGeometry x="560" y="340" width="120" height="60" as="geometry" />
        </mxCell>
        <mxCell id="xT-ObQqMbLw8H_Po4eMm-13" value="необхідність самостійно визначати рівень складності питання" style="rounded=1;whiteSpace=wrap;html=1;" parent="1" vertex="1">
          <mxGeometry x="700" y="340" width="120" height="60" as="geometry" />
        </mxCell>
        <mxCell id="ZdOHhi22eedC991sWrJ1-8" style="edgeStyle=orthogonalEdgeStyle;rounded=0;orthogonalLoop=1;jettySize=auto;html=1;endArrow=none;endFill=0;" parent="1" source="ZdOHhi22eedC991sWrJ1-1" target="ZdOHhi22eedC991sWrJ1-3" edge="1">
          <mxGeometry relative="1" as="geometry" />
        </mxCell>
        <mxCell id="ZdOHhi22eedC991sWrJ1-9" style="edgeStyle=orthogonalEdgeStyle;rounded=0;orthogonalLoop=1;jettySize=auto;html=1;" parent="1" edge="1">
          <mxGeometry relative="1" as="geometry">
            <mxPoint x="328" y="600" as="sourcePoint" />
            <mxPoint x="12" y="747.5" as="targetPoint" />
          </mxGeometry>
        </mxCell>
        <mxCell id="ZdOHhi22eedC991sWrJ1-10" style="edgeStyle=orthogonalEdgeStyle;rounded=0;orthogonalLoop=1;jettySize=auto;html=1;endArrow=none;endFill=0;" parent="1" source="ZdOHhi22eedC991sWrJ1-1" target="ZdOHhi22eedC991sWrJ1-5" edge="1">
          <mxGeometry relative="1" as="geometry">
            <Array as="points">
              <mxPoint x="420" y="600" />
              <mxPoint x="842" y="600" />
            </Array>
          </mxGeometry>
        </mxCell>
        <mxCell id="ZdOHhi22eedC991sWrJ1-11" style="edgeStyle=orthogonalEdgeStyle;rounded=0;orthogonalLoop=1;jettySize=auto;html=1;endArrow=none;endFill=0;" parent="1" source="ZdOHhi22eedC991sWrJ1-1" target="ZdOHhi22eedC991sWrJ1-6" edge="1">
          <mxGeometry relative="1" as="geometry">
            <Array as="points">
              <mxPoint x="420" y="600" />
              <mxPoint x="632" y="600" />
            </Array>
          </mxGeometry>
        </mxCell>
        <mxCell id="ZdOHhi22eedC991sWrJ1-13" style="edgeStyle=orthogonalEdgeStyle;rounded=0;orthogonalLoop=1;jettySize=auto;html=1;endArrow=none;endFill=0;" parent="1" source="ZdOHhi22eedC991sWrJ1-1" target="ZdOHhi22eedC991sWrJ1-4" edge="1">
          <mxGeometry relative="1" as="geometry">
            <Array as="points">
              <mxPoint x="420" y="600" />
              <mxPoint x="212" y="600" />
            </Array>
          </mxGeometry>
        </mxCell>
        <mxCell id="ZdOHhi22eedC991sWrJ1-1" value="&lt;span style=&quot;line-height: 150%;&quot;&gt;&lt;font style=&quot;font-size: 12px;&quot; face=&quot;Helvetica&quot;&gt;Створення єдиної бази питань відповідей для інтелектуальної гри &quot;Що? Де? Коли?&quot;&lt;/font&gt;&lt;/span&gt;" style="rounded=1;whiteSpace=wrap;html=1;" parent="1" vertex="1">
          <mxGeometry x="328" y="505" width="184" height="75" as="geometry" />
        </mxCell>
        <mxCell id="ZdOHhi22eedC991sWrJ1-2" value="&lt;span style=&quot;line-height: 150%;&quot;&gt;&lt;font style=&quot;font-size: 12px;&quot; face=&quot;Helvetica&quot;&gt;розроблення модулю для перегляду турнірів&lt;/font&gt;&lt;/span&gt;" style="rounded=1;whiteSpace=wrap;html=1;" parent="1" vertex="1">
          <mxGeometry x="-80" y="690" width="184" height="75" as="geometry" />
        </mxCell>
        <mxCell id="ZdOHhi22eedC991sWrJ1-3" value="&lt;span style=&quot;line-height: 150%;&quot;&gt;&lt;font style=&quot;font-size: 12px;&quot; face=&quot;Helvetica&quot;&gt;розроблення модулю додавання турніру&lt;/font&gt;&lt;/span&gt;" style="rounded=1;whiteSpace=wrap;html=1;" parent="1" vertex="1">
          <mxGeometry x="328" y="690" width="184" height="75" as="geometry" />
        </mxCell>
        <mxCell id="ZdOHhi22eedC991sWrJ1-4" value="&lt;span style=&quot;line-height: 150%;&quot;&gt;&lt;font style=&quot;font-size: 12px;&quot; face=&quot;Helvetica&quot;&gt;розроблення модулю розділення користувачів на ролі&lt;/font&gt;&lt;/span&gt;" style="rounded=1;whiteSpace=wrap;html=1;" parent="1" vertex="1">
          <mxGeometry x="120" y="690" width="184" height="75" as="geometry" />
        </mxCell>
        <mxCell id="ZdOHhi22eedC991sWrJ1-5" value="&lt;span style=&quot;line-height: 150%;&quot;&gt;&lt;font style=&quot;font-size: 12px;&quot; face=&quot;Helvetica&quot;&gt;розроблення модулю генерації питань&lt;/font&gt;&lt;/span&gt;" style="rounded=1;whiteSpace=wrap;html=1;" parent="1" vertex="1">
          <mxGeometry x="750" y="690" width="184" height="75" as="geometry" />
        </mxCell>
        <mxCell id="ZdOHhi22eedC991sWrJ1-6" value="&lt;span style=&quot;line-height: 150%;&quot;&gt;&lt;font style=&quot;font-size: 12px;&quot; face=&quot;Helvetica&quot;&gt;розроблення модулю панелі адміністратора&lt;/font&gt;&lt;/span&gt;" style="rounded=1;whiteSpace=wrap;html=1;" parent="1" vertex="1">
          <mxGeometry x="540" y="690" width="184" height="75" as="geometry" />
        </mxCell>
        <mxCell id="ZdOHhi22eedC991sWrJ1-14" value="Дерево цілей" style="rounded=1;whiteSpace=wrap;html=1;fillColor=#d5e8d4;strokeColor=#82b366;" parent="1" vertex="1">
          <mxGeometry x="650" y="510" width="120" height="40" as="geometry" />
        </mxCell>
        <mxCell id="Iov8iritI2IlfBss5Z7z-1" value="Дерево результатів" style="rounded=1;whiteSpace=wrap;html=1;fillColor=#d5e8d4;strokeColor=#82b366;" parent="1" vertex="1">
          <mxGeometry x="660" y="850" width="120" height="40" as="geometry" />
        </mxCell>
        <mxCell id="Iov8iritI2IlfBss5Z7z-2" value="&lt;span style=&quot;line-height: 150%;&quot;&gt;&lt;font style=&quot;font-size: 12px;&quot; face=&quot;Helvetica&quot;&gt;Створено єдину базу питань відповідей для інтелектуальної гри &quot;Що? Де? Коли?&quot;&lt;/font&gt;&lt;/span&gt;" style="rounded=1;whiteSpace=wrap;html=1;" parent="1" vertex="1">
          <mxGeometry x="328" y="910" width="184" height="75" as="geometry" />
        </mxCell>
        <mxCell id="mTm-ireNvK02SfAzwQeO-1" value="Презентація" style="ellipse;whiteSpace=wrap;html=1;" parent="1" vertex="1">
          <mxGeometry x="1550" y="90" width="120" height="40" as="geometry" />
        </mxCell>
        <mxCell id="FtWiuKkBpGTH_vSGl-Sd-5" style="edgeStyle=orthogonalEdgeStyle;rounded=0;orthogonalLoop=1;jettySize=auto;html=1;endArrow=none;endFill=0;" parent="1" source="mTm-ireNvK02SfAzwQeO-2" target="FtWiuKkBpGTH_vSGl-Sd-3" edge="1">
          <mxGeometry relative="1" as="geometry">
            <Array as="points">
              <mxPoint x="1390" y="210" />
              <mxPoint x="1210" y="210" />
            </Array>
          </mxGeometry>
        </mxCell>
        <mxCell id="FtWiuKkBpGTH_vSGl-Sd-6" style="edgeStyle=orthogonalEdgeStyle;rounded=0;orthogonalLoop=1;jettySize=auto;html=1;endArrow=none;endFill=0;" parent="1" source="mTm-ireNvK02SfAzwQeO-2" target="FtWiuKkBpGTH_vSGl-Sd-1" edge="1">
          <mxGeometry relative="1" as="geometry" />
        </mxCell>
        <mxCell id="FtWiuKkBpGTH_vSGl-Sd-7" style="edgeStyle=orthogonalEdgeStyle;rounded=0;orthogonalLoop=1;jettySize=auto;html=1;endArrow=none;endFill=0;" parent="1" source="mTm-ireNvK02SfAzwQeO-2" target="FtWiuKkBpGTH_vSGl-Sd-2" edge="1">
          <mxGeometry relative="1" as="geometry">
            <Array as="points">
              <mxPoint x="1390" y="210" />
              <mxPoint x="1570" y="210" />
            </Array>
          </mxGeometry>
        </mxCell>
        <mxCell id="mTm-ireNvK02SfAzwQeO-2" value="Односторінковий застосунок на Angular" style="rounded=0;whiteSpace=wrap;html=1;" parent="1" vertex="1">
          <mxGeometry x="1330" y="130" width="120" height="60" as="geometry" />
        </mxCell>
        <mxCell id="mTm-ireNvK02SfAzwQeO-3" value="Бізнес логіка" style="ellipse;whiteSpace=wrap;html=1;" parent="1" vertex="1">
          <mxGeometry x="1550" y="370" width="120" height="40" as="geometry" />
        </mxCell>
        <mxCell id="FtWiuKkBpGTH_vSGl-Sd-11" style="edgeStyle=orthogonalEdgeStyle;rounded=0;orthogonalLoop=1;jettySize=auto;html=1;endArrow=none;endFill=0;" parent="1" source="mTm-ireNvK02SfAzwQeO-4" target="FtWiuKkBpGTH_vSGl-Sd-8" edge="1">
          <mxGeometry relative="1" as="geometry">
            <Array as="points">
              <mxPoint x="1390" y="500" />
              <mxPoint x="1210" y="500" />
            </Array>
          </mxGeometry>
        </mxCell>
        <mxCell id="FtWiuKkBpGTH_vSGl-Sd-12" style="edgeStyle=orthogonalEdgeStyle;rounded=0;orthogonalLoop=1;jettySize=auto;html=1;endArrow=none;endFill=0;" parent="1" source="mTm-ireNvK02SfAzwQeO-4" target="FtWiuKkBpGTH_vSGl-Sd-9" edge="1">
          <mxGeometry relative="1" as="geometry" />
        </mxCell>
        <mxCell id="FtWiuKkBpGTH_vSGl-Sd-13" style="edgeStyle=orthogonalEdgeStyle;rounded=0;orthogonalLoop=1;jettySize=auto;html=1;endArrow=none;endFill=0;" parent="1" source="mTm-ireNvK02SfAzwQeO-4" target="FtWiuKkBpGTH_vSGl-Sd-10" edge="1">
          <mxGeometry relative="1" as="geometry">
            <Array as="points">
              <mxPoint x="1390" y="500" />
              <mxPoint x="1570" y="500" />
            </Array>
          </mxGeometry>
        </mxCell>
        <mxCell id="mTm-ireNvK02SfAzwQeO-4" value="Сервер на ASP.NET Core" style="rounded=0;whiteSpace=wrap;html=1;" parent="1" vertex="1">
          <mxGeometry x="1330" y="420" width="120" height="60" as="geometry" />
        </mxCell>
        <mxCell id="FtWiuKkBpGTH_vSGl-Sd-1" value="Компоненти" style="rounded=0;whiteSpace=wrap;html=1;" parent="1" vertex="1">
          <mxGeometry x="1330" y="260" width="120" height="60" as="geometry" />
        </mxCell>
        <mxCell id="FtWiuKkBpGTH_vSGl-Sd-2" value="Сервіси" style="rounded=0;whiteSpace=wrap;html=1;" parent="1" vertex="1">
          <mxGeometry x="1510" y="260" width="120" height="60" as="geometry" />
        </mxCell>
        <mxCell id="FtWiuKkBpGTH_vSGl-Sd-3" value="Модулі" style="rounded=0;whiteSpace=wrap;html=1;" parent="1" vertex="1">
          <mxGeometry x="1150" y="260" width="120" height="60" as="geometry" />
        </mxCell>
        <mxCell id="FtWiuKkBpGTH_vSGl-Sd-8" value="Контролери" style="rounded=0;whiteSpace=wrap;html=1;" parent="1" vertex="1">
          <mxGeometry x="1150" y="540" width="120" height="60" as="geometry" />
        </mxCell>
        <mxCell id="FtWiuKkBpGTH_vSGl-Sd-9" value="Сервіси" style="rounded=0;whiteSpace=wrap;html=1;" parent="1" vertex="1">
          <mxGeometry x="1330" y="540" width="120" height="60" as="geometry" />
        </mxCell>
        <mxCell id="FtWiuKkBpGTH_vSGl-Sd-10" value="Репозиторії" style="rounded=0;whiteSpace=wrap;html=1;" parent="1" vertex="1">
          <mxGeometry x="1510" y="540" width="120" height="60" as="geometry" />
        </mxCell>
        <mxCell id="FtWiuKkBpGTH_vSGl-Sd-14" value="Дані" style="ellipse;whiteSpace=wrap;html=1;" parent="1" vertex="1">
          <mxGeometry x="1550" y="680" width="120" height="40" as="geometry" />
        </mxCell>
        <mxCell id="FtWiuKkBpGTH_vSGl-Sd-15" value="База даних SQL Server" style="rounded=0;whiteSpace=wrap;html=1;" parent="1" vertex="1">
          <mxGeometry x="1330" y="720" width="120" height="60" as="geometry" />
        </mxCell>
        <mxCell id="FtWiuKkBpGTH_vSGl-Sd-18" value="" style="swimlane;startSize=0;fillColor=#dae8fc;strokeColor=#6c8ebf;" parent="1" vertex="1">
          <mxGeometry x="1100" y="70" width="620" height="810" as="geometry">
            <mxRectangle x="1100" y="70" width="50" height="40" as="alternateBounds" />
          </mxGeometry>
        </mxCell>
        <mxCell id="FtWiuKkBpGTH_vSGl-Sd-26" style="edgeStyle=orthogonalEdgeStyle;rounded=0;orthogonalLoop=1;jettySize=auto;html=1;exitX=0.5;exitY=1;exitDx=0;exitDy=0;" parent="FtWiuKkBpGTH_vSGl-Sd-18" edge="1">
          <mxGeometry relative="1" as="geometry">
            <mxPoint x="310" y="810" as="sourcePoint" />
            <mxPoint x="310" y="810" as="targetPoint" />
          </mxGeometry>
        </mxCell>
        <mxCell id="mkhXkqGHJLNKr7PjVlJG-22" value="tournaments" style="shape=table;startSize=30;container=1;collapsible=1;childLayout=tableLayout;fixedRows=1;rowLines=0;fontStyle=1;align=center;resizeLast=1;html=1;" parent="1" vertex="1">
          <mxGeometry x="1380" y="980" width="180" height="180" as="geometry">
            <mxRectangle x="1010" y="980" width="110" height="30" as="alternateBounds" />
          </mxGeometry>
        </mxCell>
        <mxCell id="mkhXkqGHJLNKr7PjVlJG-23" value="" style="shape=tableRow;horizontal=0;startSize=0;swimlaneHead=0;swimlaneBody=0;fillColor=none;collapsible=0;dropTarget=0;points=[[0,0.5],[1,0.5]];portConstraint=eastwest;top=0;left=0;right=0;bottom=1;" parent="mkhXkqGHJLNKr7PjVlJG-22" vertex="1">
          <mxGeometry y="30" width="180" height="30" as="geometry" />
        </mxCell>
        <mxCell id="mkhXkqGHJLNKr7PjVlJG-24" value="PK" style="shape=partialRectangle;connectable=0;fillColor=none;top=0;left=0;bottom=0;right=0;fontStyle=1;overflow=hidden;whiteSpace=wrap;html=1;" parent="mkhXkqGHJLNKr7PjVlJG-23" vertex="1">
          <mxGeometry width="30" height="30" as="geometry">
            <mxRectangle width="30" height="30" as="alternateBounds" />
          </mxGeometry>
        </mxCell>
        <mxCell id="mkhXkqGHJLNKr7PjVlJG-25" value="Id" style="shape=partialRectangle;connectable=0;fillColor=none;top=0;left=0;bottom=0;right=0;align=left;spacingLeft=6;fontStyle=5;overflow=hidden;whiteSpace=wrap;html=1;" parent="mkhXkqGHJLNKr7PjVlJG-23" vertex="1">
          <mxGeometry x="30" width="150" height="30" as="geometry">
            <mxRectangle width="150" height="30" as="alternateBounds" />
          </mxGeometry>
        </mxCell>
        <mxCell id="mkhXkqGHJLNKr7PjVlJG-26" value="" style="shape=tableRow;horizontal=0;startSize=0;swimlaneHead=0;swimlaneBody=0;fillColor=none;collapsible=0;dropTarget=0;points=[[0,0.5],[1,0.5]];portConstraint=eastwest;top=0;left=0;right=0;bottom=0;" parent="mkhXkqGHJLNKr7PjVlJG-22" vertex="1">
          <mxGeometry y="60" width="180" height="30" as="geometry" />
        </mxCell>
        <mxCell id="mkhXkqGHJLNKr7PjVlJG-27" value="" style="shape=partialRectangle;connectable=0;fillColor=none;top=0;left=0;bottom=0;right=0;editable=1;overflow=hidden;whiteSpace=wrap;html=1;" parent="mkhXkqGHJLNKr7PjVlJG-26" vertex="1">
          <mxGeometry width="30" height="30" as="geometry">
            <mxRectangle width="30" height="30" as="alternateBounds" />
          </mxGeometry>
        </mxCell>
        <mxCell id="mkhXkqGHJLNKr7PjVlJG-28" value="date" style="shape=partialRectangle;connectable=0;fillColor=none;top=0;left=0;bottom=0;right=0;align=left;spacingLeft=6;overflow=hidden;whiteSpace=wrap;html=1;" parent="mkhXkqGHJLNKr7PjVlJG-26" vertex="1">
          <mxGeometry x="30" width="150" height="30" as="geometry">
            <mxRectangle width="150" height="30" as="alternateBounds" />
          </mxGeometry>
        </mxCell>
        <mxCell id="mkhXkqGHJLNKr7PjVlJG-29" value="" style="shape=tableRow;horizontal=0;startSize=0;swimlaneHead=0;swimlaneBody=0;fillColor=none;collapsible=0;dropTarget=0;points=[[0,0.5],[1,0.5]];portConstraint=eastwest;top=0;left=0;right=0;bottom=0;" parent="mkhXkqGHJLNKr7PjVlJG-22" vertex="1">
          <mxGeometry y="90" width="180" height="30" as="geometry" />
        </mxCell>
        <mxCell id="mkhXkqGHJLNKr7PjVlJG-30" value="" style="shape=partialRectangle;connectable=0;fillColor=none;top=0;left=0;bottom=0;right=0;editable=1;overflow=hidden;whiteSpace=wrap;html=1;" parent="mkhXkqGHJLNKr7PjVlJG-29" vertex="1">
          <mxGeometry width="30" height="30" as="geometry">
            <mxRectangle width="30" height="30" as="alternateBounds" />
          </mxGeometry>
        </mxCell>
        <mxCell id="mkhXkqGHJLNKr7PjVlJG-31" value="category" style="shape=partialRectangle;connectable=0;fillColor=none;top=0;left=0;bottom=0;right=0;align=left;spacingLeft=6;overflow=hidden;whiteSpace=wrap;html=1;" parent="mkhXkqGHJLNKr7PjVlJG-29" vertex="1">
          <mxGeometry x="30" width="150" height="30" as="geometry">
            <mxRectangle width="150" height="30" as="alternateBounds" />
          </mxGeometry>
        </mxCell>
        <mxCell id="mkhXkqGHJLNKr7PjVlJG-32" value="" style="shape=tableRow;horizontal=0;startSize=0;swimlaneHead=0;swimlaneBody=0;fillColor=none;collapsible=0;dropTarget=0;points=[[0,0.5],[1,0.5]];portConstraint=eastwest;top=0;left=0;right=0;bottom=0;" parent="mkhXkqGHJLNKr7PjVlJG-22" vertex="1">
          <mxGeometry y="120" width="180" height="30" as="geometry" />
        </mxCell>
        <mxCell id="mkhXkqGHJLNKr7PjVlJG-33" value="FK" style="shape=partialRectangle;connectable=0;fillColor=none;top=0;left=0;bottom=0;right=0;editable=1;overflow=hidden;whiteSpace=wrap;html=1;" parent="mkhXkqGHJLNKr7PjVlJG-32" vertex="1">
          <mxGeometry width="30" height="30" as="geometry">
            <mxRectangle width="30" height="30" as="alternateBounds" />
          </mxGeometry>
        </mxCell>
        <mxCell id="mkhXkqGHJLNKr7PjVlJG-34" value="questionId" style="shape=partialRectangle;connectable=0;fillColor=none;top=0;left=0;bottom=0;right=0;align=left;spacingLeft=6;overflow=hidden;whiteSpace=wrap;html=1;" parent="mkhXkqGHJLNKr7PjVlJG-32" vertex="1">
          <mxGeometry x="30" width="150" height="30" as="geometry">
            <mxRectangle width="150" height="30" as="alternateBounds" />
          </mxGeometry>
        </mxCell>
        <mxCell id="mkhXkqGHJLNKr7PjVlJG-93" style="shape=tableRow;horizontal=0;startSize=0;swimlaneHead=0;swimlaneBody=0;fillColor=none;collapsible=0;dropTarget=0;points=[[0,0.5],[1,0.5]];portConstraint=eastwest;top=0;left=0;right=0;bottom=0;" parent="mkhXkqGHJLNKr7PjVlJG-22" vertex="1">
          <mxGeometry y="150" width="180" height="30" as="geometry" />
        </mxCell>
        <mxCell id="mkhXkqGHJLNKr7PjVlJG-94" style="shape=partialRectangle;connectable=0;fillColor=none;top=0;left=0;bottom=0;right=0;editable=1;overflow=hidden;whiteSpace=wrap;html=1;" parent="mkhXkqGHJLNKr7PjVlJG-93" vertex="1">
          <mxGeometry width="30" height="30" as="geometry">
            <mxRectangle width="30" height="30" as="alternateBounds" />
          </mxGeometry>
        </mxCell>
        <mxCell id="mkhXkqGHJLNKr7PjVlJG-95" value="language" style="shape=partialRectangle;connectable=0;fillColor=none;top=0;left=0;bottom=0;right=0;align=left;spacingLeft=6;overflow=hidden;whiteSpace=wrap;html=1;" parent="mkhXkqGHJLNKr7PjVlJG-93" vertex="1">
          <mxGeometry x="30" width="150" height="30" as="geometry">
            <mxRectangle width="150" height="30" as="alternateBounds" />
          </mxGeometry>
        </mxCell>
        <mxCell id="mkhXkqGHJLNKr7PjVlJG-45" value="questions" style="shape=table;startSize=30;container=1;collapsible=1;childLayout=tableLayout;fixedRows=1;rowLines=0;fontStyle=1;align=center;resizeLast=1;html=1;" parent="1" vertex="1">
          <mxGeometry x="1380" y="1169" width="180" height="180" as="geometry">
            <mxRectangle x="1010" y="980" width="110" height="30" as="alternateBounds" />
          </mxGeometry>
        </mxCell>
        <mxCell id="mkhXkqGHJLNKr7PjVlJG-46" value="" style="shape=tableRow;horizontal=0;startSize=0;swimlaneHead=0;swimlaneBody=0;fillColor=none;collapsible=0;dropTarget=0;points=[[0,0.5],[1,0.5]];portConstraint=eastwest;top=0;left=0;right=0;bottom=1;" parent="mkhXkqGHJLNKr7PjVlJG-45" vertex="1">
          <mxGeometry y="30" width="180" height="30" as="geometry" />
        </mxCell>
        <mxCell id="mkhXkqGHJLNKr7PjVlJG-47" value="PK" style="shape=partialRectangle;connectable=0;fillColor=none;top=0;left=0;bottom=0;right=0;fontStyle=1;overflow=hidden;whiteSpace=wrap;html=1;" parent="mkhXkqGHJLNKr7PjVlJG-46" vertex="1">
          <mxGeometry width="30" height="30" as="geometry">
            <mxRectangle width="30" height="30" as="alternateBounds" />
          </mxGeometry>
        </mxCell>
        <mxCell id="mkhXkqGHJLNKr7PjVlJG-48" value="Id" style="shape=partialRectangle;connectable=0;fillColor=none;top=0;left=0;bottom=0;right=0;align=left;spacingLeft=6;fontStyle=5;overflow=hidden;whiteSpace=wrap;html=1;" parent="mkhXkqGHJLNKr7PjVlJG-46" vertex="1">
          <mxGeometry x="30" width="150" height="30" as="geometry">
            <mxRectangle width="150" height="30" as="alternateBounds" />
          </mxGeometry>
        </mxCell>
        <mxCell id="mkhXkqGHJLNKr7PjVlJG-49" value="" style="shape=tableRow;horizontal=0;startSize=0;swimlaneHead=0;swimlaneBody=0;fillColor=none;collapsible=0;dropTarget=0;points=[[0,0.5],[1,0.5]];portConstraint=eastwest;top=0;left=0;right=0;bottom=0;" parent="mkhXkqGHJLNKr7PjVlJG-45" vertex="1">
          <mxGeometry y="60" width="180" height="30" as="geometry" />
        </mxCell>
        <mxCell id="mkhXkqGHJLNKr7PjVlJG-50" value="" style="shape=partialRectangle;connectable=0;fillColor=none;top=0;left=0;bottom=0;right=0;editable=1;overflow=hidden;whiteSpace=wrap;html=1;" parent="mkhXkqGHJLNKr7PjVlJG-49" vertex="1">
          <mxGeometry width="30" height="30" as="geometry">
            <mxRectangle width="30" height="30" as="alternateBounds" />
          </mxGeometry>
        </mxCell>
        <mxCell id="mkhXkqGHJLNKr7PjVlJG-51" value="text" style="shape=partialRectangle;connectable=0;fillColor=none;top=0;left=0;bottom=0;right=0;align=left;spacingLeft=6;overflow=hidden;whiteSpace=wrap;html=1;" parent="mkhXkqGHJLNKr7PjVlJG-49" vertex="1">
          <mxGeometry x="30" width="150" height="30" as="geometry">
            <mxRectangle width="150" height="30" as="alternateBounds" />
          </mxGeometry>
        </mxCell>
        <mxCell id="mkhXkqGHJLNKr7PjVlJG-52" value="" style="shape=tableRow;horizontal=0;startSize=0;swimlaneHead=0;swimlaneBody=0;fillColor=none;collapsible=0;dropTarget=0;points=[[0,0.5],[1,0.5]];portConstraint=eastwest;top=0;left=0;right=0;bottom=0;" parent="mkhXkqGHJLNKr7PjVlJG-45" vertex="1">
          <mxGeometry y="90" width="180" height="30" as="geometry" />
        </mxCell>
        <mxCell id="mkhXkqGHJLNKr7PjVlJG-53" value="" style="shape=partialRectangle;connectable=0;fillColor=none;top=0;left=0;bottom=0;right=0;editable=1;overflow=hidden;whiteSpace=wrap;html=1;" parent="mkhXkqGHJLNKr7PjVlJG-52" vertex="1">
          <mxGeometry width="30" height="30" as="geometry">
            <mxRectangle width="30" height="30" as="alternateBounds" />
          </mxGeometry>
        </mxCell>
        <mxCell id="mkhXkqGHJLNKr7PjVlJG-54" value="answer" style="shape=partialRectangle;connectable=0;fillColor=none;top=0;left=0;bottom=0;right=0;align=left;spacingLeft=6;overflow=hidden;whiteSpace=wrap;html=1;" parent="mkhXkqGHJLNKr7PjVlJG-52" vertex="1">
          <mxGeometry x="30" width="150" height="30" as="geometry">
            <mxRectangle width="150" height="30" as="alternateBounds" />
          </mxGeometry>
        </mxCell>
        <mxCell id="mkhXkqGHJLNKr7PjVlJG-55" value="" style="shape=tableRow;horizontal=0;startSize=0;swimlaneHead=0;swimlaneBody=0;fillColor=none;collapsible=0;dropTarget=0;points=[[0,0.5],[1,0.5]];portConstraint=eastwest;top=0;left=0;right=0;bottom=0;" parent="mkhXkqGHJLNKr7PjVlJG-45" vertex="1">
          <mxGeometry y="120" width="180" height="30" as="geometry" />
        </mxCell>
        <mxCell id="mkhXkqGHJLNKr7PjVlJG-56" value="" style="shape=partialRectangle;connectable=0;fillColor=none;top=0;left=0;bottom=0;right=0;editable=1;overflow=hidden;whiteSpace=wrap;html=1;" parent="mkhXkqGHJLNKr7PjVlJG-55" vertex="1">
          <mxGeometry width="30" height="30" as="geometry">
            <mxRectangle width="30" height="30" as="alternateBounds" />
          </mxGeometry>
        </mxCell>
        <mxCell id="mkhXkqGHJLNKr7PjVlJG-57" value="language" style="shape=partialRectangle;connectable=0;fillColor=none;top=0;left=0;bottom=0;right=0;align=left;spacingLeft=6;overflow=hidden;whiteSpace=wrap;html=1;" parent="mkhXkqGHJLNKr7PjVlJG-55" vertex="1">
          <mxGeometry x="30" width="150" height="30" as="geometry">
            <mxRectangle width="150" height="30" as="alternateBounds" />
          </mxGeometry>
        </mxCell>
        <mxCell id="mkhXkqGHJLNKr7PjVlJG-58" style="shape=tableRow;horizontal=0;startSize=0;swimlaneHead=0;swimlaneBody=0;fillColor=none;collapsible=0;dropTarget=0;points=[[0,0.5],[1,0.5]];portConstraint=eastwest;top=0;left=0;right=0;bottom=0;" parent="mkhXkqGHJLNKr7PjVlJG-45" vertex="1">
          <mxGeometry y="150" width="180" height="30" as="geometry" />
        </mxCell>
        <mxCell id="mkhXkqGHJLNKr7PjVlJG-59" style="shape=partialRectangle;connectable=0;fillColor=none;top=0;left=0;bottom=0;right=0;editable=1;overflow=hidden;whiteSpace=wrap;html=1;" parent="mkhXkqGHJLNKr7PjVlJG-58" vertex="1">
          <mxGeometry width="30" height="30" as="geometry">
            <mxRectangle width="30" height="30" as="alternateBounds" />
          </mxGeometry>
        </mxCell>
        <mxCell id="mkhXkqGHJLNKr7PjVlJG-60" value="category" style="shape=partialRectangle;connectable=0;fillColor=none;top=0;left=0;bottom=0;right=0;align=left;spacingLeft=6;overflow=hidden;whiteSpace=wrap;html=1;" parent="mkhXkqGHJLNKr7PjVlJG-58" vertex="1">
          <mxGeometry x="30" width="150" height="30" as="geometry">
            <mxRectangle width="150" height="30" as="alternateBounds" />
          </mxGeometry>
        </mxCell>
        <mxCell id="mkhXkqGHJLNKr7PjVlJG-61" value="users" style="shape=table;startSize=30;container=1;collapsible=1;childLayout=tableLayout;fixedRows=1;rowLines=0;fontStyle=1;align=center;resizeLast=1;html=1;" parent="1" vertex="1">
          <mxGeometry x="1040" y="1000" width="180" height="150" as="geometry">
            <mxRectangle x="1010" y="980" width="110" height="30" as="alternateBounds" />
          </mxGeometry>
        </mxCell>
        <mxCell id="mkhXkqGHJLNKr7PjVlJG-62" value="" style="shape=tableRow;horizontal=0;startSize=0;swimlaneHead=0;swimlaneBody=0;fillColor=none;collapsible=0;dropTarget=0;points=[[0,0.5],[1,0.5]];portConstraint=eastwest;top=0;left=0;right=0;bottom=1;" parent="mkhXkqGHJLNKr7PjVlJG-61" vertex="1">
          <mxGeometry y="30" width="180" height="30" as="geometry" />
        </mxCell>
        <mxCell id="mkhXkqGHJLNKr7PjVlJG-63" value="PK" style="shape=partialRectangle;connectable=0;fillColor=none;top=0;left=0;bottom=0;right=0;fontStyle=1;overflow=hidden;whiteSpace=wrap;html=1;" parent="mkhXkqGHJLNKr7PjVlJG-62" vertex="1">
          <mxGeometry width="30" height="30" as="geometry">
            <mxRectangle width="30" height="30" as="alternateBounds" />
          </mxGeometry>
        </mxCell>
        <mxCell id="mkhXkqGHJLNKr7PjVlJG-64" value="Id" style="shape=partialRectangle;connectable=0;fillColor=none;top=0;left=0;bottom=0;right=0;align=left;spacingLeft=6;fontStyle=5;overflow=hidden;whiteSpace=wrap;html=1;" parent="mkhXkqGHJLNKr7PjVlJG-62" vertex="1">
          <mxGeometry x="30" width="150" height="30" as="geometry">
            <mxRectangle width="150" height="30" as="alternateBounds" />
          </mxGeometry>
        </mxCell>
        <mxCell id="mkhXkqGHJLNKr7PjVlJG-65" value="" style="shape=tableRow;horizontal=0;startSize=0;swimlaneHead=0;swimlaneBody=0;fillColor=none;collapsible=0;dropTarget=0;points=[[0,0.5],[1,0.5]];portConstraint=eastwest;top=0;left=0;right=0;bottom=0;" parent="mkhXkqGHJLNKr7PjVlJG-61" vertex="1">
          <mxGeometry y="60" width="180" height="30" as="geometry" />
        </mxCell>
        <mxCell id="mkhXkqGHJLNKr7PjVlJG-66" value="" style="shape=partialRectangle;connectable=0;fillColor=none;top=0;left=0;bottom=0;right=0;editable=1;overflow=hidden;whiteSpace=wrap;html=1;" parent="mkhXkqGHJLNKr7PjVlJG-65" vertex="1">
          <mxGeometry width="30" height="30" as="geometry">
            <mxRectangle width="30" height="30" as="alternateBounds" />
          </mxGeometry>
        </mxCell>
        <mxCell id="mkhXkqGHJLNKr7PjVlJG-67" value="email" style="shape=partialRectangle;connectable=0;fillColor=none;top=0;left=0;bottom=0;right=0;align=left;spacingLeft=6;overflow=hidden;whiteSpace=wrap;html=1;" parent="mkhXkqGHJLNKr7PjVlJG-65" vertex="1">
          <mxGeometry x="30" width="150" height="30" as="geometry">
            <mxRectangle width="150" height="30" as="alternateBounds" />
          </mxGeometry>
        </mxCell>
        <mxCell id="mkhXkqGHJLNKr7PjVlJG-68" value="" style="shape=tableRow;horizontal=0;startSize=0;swimlaneHead=0;swimlaneBody=0;fillColor=none;collapsible=0;dropTarget=0;points=[[0,0.5],[1,0.5]];portConstraint=eastwest;top=0;left=0;right=0;bottom=0;" parent="mkhXkqGHJLNKr7PjVlJG-61" vertex="1">
          <mxGeometry y="90" width="180" height="30" as="geometry" />
        </mxCell>
        <mxCell id="mkhXkqGHJLNKr7PjVlJG-69" value="" style="shape=partialRectangle;connectable=0;fillColor=none;top=0;left=0;bottom=0;right=0;editable=1;overflow=hidden;whiteSpace=wrap;html=1;" parent="mkhXkqGHJLNKr7PjVlJG-68" vertex="1">
          <mxGeometry width="30" height="30" as="geometry">
            <mxRectangle width="30" height="30" as="alternateBounds" />
          </mxGeometry>
        </mxCell>
        <mxCell id="mkhXkqGHJLNKr7PjVlJG-70" value="password" style="shape=partialRectangle;connectable=0;fillColor=none;top=0;left=0;bottom=0;right=0;align=left;spacingLeft=6;overflow=hidden;whiteSpace=wrap;html=1;" parent="mkhXkqGHJLNKr7PjVlJG-68" vertex="1">
          <mxGeometry x="30" width="150" height="30" as="geometry">
            <mxRectangle width="150" height="30" as="alternateBounds" />
          </mxGeometry>
        </mxCell>
        <mxCell id="mkhXkqGHJLNKr7PjVlJG-71" value="" style="shape=tableRow;horizontal=0;startSize=0;swimlaneHead=0;swimlaneBody=0;fillColor=none;collapsible=0;dropTarget=0;points=[[0,0.5],[1,0.5]];portConstraint=eastwest;top=0;left=0;right=0;bottom=0;" parent="mkhXkqGHJLNKr7PjVlJG-61" vertex="1">
          <mxGeometry y="120" width="180" height="30" as="geometry" />
        </mxCell>
        <mxCell id="mkhXkqGHJLNKr7PjVlJG-72" value="FK" style="shape=partialRectangle;connectable=0;fillColor=none;top=0;left=0;bottom=0;right=0;editable=1;overflow=hidden;whiteSpace=wrap;html=1;" parent="mkhXkqGHJLNKr7PjVlJG-71" vertex="1">
          <mxGeometry width="30" height="30" as="geometry">
            <mxRectangle width="30" height="30" as="alternateBounds" />
          </mxGeometry>
        </mxCell>
        <mxCell id="mkhXkqGHJLNKr7PjVlJG-73" value="roleId" style="shape=partialRectangle;connectable=0;fillColor=none;top=0;left=0;bottom=0;right=0;align=left;spacingLeft=6;overflow=hidden;whiteSpace=wrap;html=1;" parent="mkhXkqGHJLNKr7PjVlJG-71" vertex="1">
          <mxGeometry x="30" width="150" height="30" as="geometry">
            <mxRectangle width="150" height="30" as="alternateBounds" />
          </mxGeometry>
        </mxCell>
        <mxCell id="mkhXkqGHJLNKr7PjVlJG-74" value="roles" style="shape=table;startSize=30;container=1;collapsible=1;childLayout=tableLayout;fixedRows=1;rowLines=0;fontStyle=1;align=center;resizeLast=1;html=1;" parent="1" vertex="1">
          <mxGeometry x="1040" y="1180" width="180" height="120" as="geometry">
            <mxRectangle x="1010" y="980" width="110" height="30" as="alternateBounds" />
          </mxGeometry>
        </mxCell>
        <mxCell id="mkhXkqGHJLNKr7PjVlJG-75" value="" style="shape=tableRow;horizontal=0;startSize=0;swimlaneHead=0;swimlaneBody=0;fillColor=none;collapsible=0;dropTarget=0;points=[[0,0.5],[1,0.5]];portConstraint=eastwest;top=0;left=0;right=0;bottom=1;" parent="mkhXkqGHJLNKr7PjVlJG-74" vertex="1">
          <mxGeometry y="30" width="180" height="30" as="geometry" />
        </mxCell>
        <mxCell id="mkhXkqGHJLNKr7PjVlJG-76" value="PK" style="shape=partialRectangle;connectable=0;fillColor=none;top=0;left=0;bottom=0;right=0;fontStyle=1;overflow=hidden;whiteSpace=wrap;html=1;" parent="mkhXkqGHJLNKr7PjVlJG-75" vertex="1">
          <mxGeometry width="30" height="30" as="geometry">
            <mxRectangle width="30" height="30" as="alternateBounds" />
          </mxGeometry>
        </mxCell>
        <mxCell id="mkhXkqGHJLNKr7PjVlJG-77" value="Id" style="shape=partialRectangle;connectable=0;fillColor=none;top=0;left=0;bottom=0;right=0;align=left;spacingLeft=6;fontStyle=5;overflow=hidden;whiteSpace=wrap;html=1;" parent="mkhXkqGHJLNKr7PjVlJG-75" vertex="1">
          <mxGeometry x="30" width="150" height="30" as="geometry">
            <mxRectangle width="150" height="30" as="alternateBounds" />
          </mxGeometry>
        </mxCell>
        <mxCell id="mkhXkqGHJLNKr7PjVlJG-78" value="" style="shape=tableRow;horizontal=0;startSize=0;swimlaneHead=0;swimlaneBody=0;fillColor=none;collapsible=0;dropTarget=0;points=[[0,0.5],[1,0.5]];portConstraint=eastwest;top=0;left=0;right=0;bottom=0;" parent="mkhXkqGHJLNKr7PjVlJG-74" vertex="1">
          <mxGeometry y="60" width="180" height="30" as="geometry" />
        </mxCell>
        <mxCell id="mkhXkqGHJLNKr7PjVlJG-79" value="" style="shape=partialRectangle;connectable=0;fillColor=none;top=0;left=0;bottom=0;right=0;editable=1;overflow=hidden;whiteSpace=wrap;html=1;" parent="mkhXkqGHJLNKr7PjVlJG-78" vertex="1">
          <mxGeometry width="30" height="30" as="geometry">
            <mxRectangle width="30" height="30" as="alternateBounds" />
          </mxGeometry>
        </mxCell>
        <mxCell id="mkhXkqGHJLNKr7PjVlJG-80" value="name" style="shape=partialRectangle;connectable=0;fillColor=none;top=0;left=0;bottom=0;right=0;align=left;spacingLeft=6;overflow=hidden;whiteSpace=wrap;html=1;" parent="mkhXkqGHJLNKr7PjVlJG-78" vertex="1">
          <mxGeometry x="30" width="150" height="30" as="geometry">
            <mxRectangle width="150" height="30" as="alternateBounds" />
          </mxGeometry>
        </mxCell>
        <mxCell id="mkhXkqGHJLNKr7PjVlJG-81" value="" style="shape=tableRow;horizontal=0;startSize=0;swimlaneHead=0;swimlaneBody=0;fillColor=none;collapsible=0;dropTarget=0;points=[[0,0.5],[1,0.5]];portConstraint=eastwest;top=0;left=0;right=0;bottom=0;" parent="mkhXkqGHJLNKr7PjVlJG-74" vertex="1">
          <mxGeometry y="90" width="180" height="30" as="geometry" />
        </mxCell>
        <mxCell id="mkhXkqGHJLNKr7PjVlJG-82" value="" style="shape=partialRectangle;connectable=0;fillColor=none;top=0;left=0;bottom=0;right=0;editable=1;overflow=hidden;whiteSpace=wrap;html=1;" parent="mkhXkqGHJLNKr7PjVlJG-81" vertex="1">
          <mxGeometry width="30" height="30" as="geometry">
            <mxRectangle width="30" height="30" as="alternateBounds" />
          </mxGeometry>
        </mxCell>
        <mxCell id="mkhXkqGHJLNKr7PjVlJG-83" value="description" style="shape=partialRectangle;connectable=0;fillColor=none;top=0;left=0;bottom=0;right=0;align=left;spacingLeft=6;overflow=hidden;whiteSpace=wrap;html=1;" parent="mkhXkqGHJLNKr7PjVlJG-81" vertex="1">
          <mxGeometry x="30" width="150" height="30" as="geometry">
            <mxRectangle width="150" height="30" as="alternateBounds" />
          </mxGeometry>
        </mxCell>
        <mxCell id="mkhXkqGHJLNKr7PjVlJG-88" style="edgeStyle=orthogonalEdgeStyle;rounded=0;orthogonalLoop=1;jettySize=auto;html=1;entryX=0;entryY=0.5;entryDx=0;entryDy=0;startArrow=ERmandOne;startFill=0;endArrow=ERmany;endFill=0;" parent="1" source="mkhXkqGHJLNKr7PjVlJG-71" target="mkhXkqGHJLNKr7PjVlJG-75" edge="1">
          <mxGeometry relative="1" as="geometry" />
        </mxCell>
        <mxCell id="mkhXkqGHJLNKr7PjVlJG-89" style="edgeStyle=orthogonalEdgeStyle;rounded=0;orthogonalLoop=1;jettySize=auto;html=1;entryX=0;entryY=0.5;entryDx=0;entryDy=0;endArrow=ERmany;endFill=0;startArrow=ERmandOne;startFill=0;" parent="1" source="mkhXkqGHJLNKr7PjVlJG-32" target="mkhXkqGHJLNKr7PjVlJG-46" edge="1">
          <mxGeometry relative="1" as="geometry" />
        </mxCell>
        <mxCell id="vzBMWgb7QnxMKiiZ0FVF-6" style="edgeStyle=orthogonalEdgeStyle;rounded=0;orthogonalLoop=1;jettySize=auto;html=1;endArrow=none;endFill=0;" parent="1" source="vzBMWgb7QnxMKiiZ0FVF-1" target="vzBMWgb7QnxMKiiZ0FVF-2" edge="1">
          <mxGeometry relative="1" as="geometry" />
        </mxCell>
        <mxCell id="vzBMWgb7QnxMKiiZ0FVF-1" value="Застосунок" style="rounded=1;whiteSpace=wrap;html=1;" parent="1" vertex="1">
          <mxGeometry x="160" y="1190" width="120" height="60" as="geometry" />
        </mxCell>
        <mxCell id="vzBMWgb7QnxMKiiZ0FVF-7" style="edgeStyle=orthogonalEdgeStyle;rounded=0;orthogonalLoop=1;jettySize=auto;html=1;endArrow=none;endFill=0;" parent="1" source="vzBMWgb7QnxMKiiZ0FVF-2" target="vzBMWgb7QnxMKiiZ0FVF-3" edge="1">
          <mxGeometry relative="1" as="geometry" />
        </mxCell>
        <mxCell id="vzBMWgb7QnxMKiiZ0FVF-2" value="Маршрут" style="rounded=1;whiteSpace=wrap;html=1;" parent="1" vertex="1">
          <mxGeometry x="160" y="1290" width="120" height="60" as="geometry" />
        </mxCell>
        <mxCell id="vzBMWgb7QnxMKiiZ0FVF-9" style="edgeStyle=orthogonalEdgeStyle;rounded=0;orthogonalLoop=1;jettySize=auto;html=1;endArrow=none;endFill=0;" parent="1" source="vzBMWgb7QnxMKiiZ0FVF-3" target="vzBMWgb7QnxMKiiZ0FVF-4" edge="1">
          <mxGeometry relative="1" as="geometry" />
        </mxCell>
        <mxCell id="vzBMWgb7QnxMKiiZ0FVF-3" value="Контролери" style="rounded=1;whiteSpace=wrap;html=1;" parent="1" vertex="1">
          <mxGeometry x="160" y="1390" width="120" height="60" as="geometry" />
        </mxCell>
        <mxCell id="vzBMWgb7QnxMKiiZ0FVF-10" style="edgeStyle=orthogonalEdgeStyle;rounded=0;orthogonalLoop=1;jettySize=auto;html=1;endArrow=none;endFill=0;" parent="1" source="vzBMWgb7QnxMKiiZ0FVF-4" target="vzBMWgb7QnxMKiiZ0FVF-5" edge="1">
          <mxGeometry relative="1" as="geometry" />
        </mxCell>
        <mxCell id="vzBMWgb7QnxMKiiZ0FVF-12" style="edgeStyle=orthogonalEdgeStyle;rounded=0;orthogonalLoop=1;jettySize=auto;html=1;endArrow=none;endFill=0;" parent="1" source="vzBMWgb7QnxMKiiZ0FVF-4" target="vzBMWgb7QnxMKiiZ0FVF-11" edge="1">
          <mxGeometry relative="1" as="geometry" />
        </mxCell>
        <mxCell id="vzBMWgb7QnxMKiiZ0FVF-4" value="Сервіси" style="rounded=1;whiteSpace=wrap;html=1;" parent="1" vertex="1">
          <mxGeometry x="160" y="1480" width="120" height="60" as="geometry" />
        </mxCell>
        <mxCell id="vzBMWgb7QnxMKiiZ0FVF-17" style="edgeStyle=orthogonalEdgeStyle;rounded=0;orthogonalLoop=1;jettySize=auto;html=1;entryX=0.5;entryY=0;entryDx=0;entryDy=0;endArrow=none;endFill=0;" parent="1" source="vzBMWgb7QnxMKiiZ0FVF-5" target="vzBMWgb7QnxMKiiZ0FVF-13" edge="1">
          <mxGeometry relative="1" as="geometry">
            <Array as="points">
              <mxPoint x="220" y="1640" />
              <mxPoint x="-10" y="1640" />
            </Array>
          </mxGeometry>
        </mxCell>
        <mxCell id="vzBMWgb7QnxMKiiZ0FVF-18" style="edgeStyle=orthogonalEdgeStyle;rounded=0;orthogonalLoop=1;jettySize=auto;html=1;endArrow=none;endFill=0;" parent="1" source="vzBMWgb7QnxMKiiZ0FVF-5" target="vzBMWgb7QnxMKiiZ0FVF-15" edge="1">
          <mxGeometry relative="1" as="geometry" />
        </mxCell>
        <mxCell id="vzBMWgb7QnxMKiiZ0FVF-19" style="edgeStyle=orthogonalEdgeStyle;rounded=0;orthogonalLoop=1;jettySize=auto;html=1;endArrow=none;endFill=0;" parent="1" source="vzBMWgb7QnxMKiiZ0FVF-5" target="vzBMWgb7QnxMKiiZ0FVF-14" edge="1">
          <mxGeometry relative="1" as="geometry" />
        </mxCell>
        <mxCell id="vzBMWgb7QnxMKiiZ0FVF-20" style="edgeStyle=orthogonalEdgeStyle;rounded=0;orthogonalLoop=1;jettySize=auto;html=1;endArrow=none;endFill=0;" parent="1" source="vzBMWgb7QnxMKiiZ0FVF-5" target="vzBMWgb7QnxMKiiZ0FVF-16" edge="1">
          <mxGeometry relative="1" as="geometry">
            <Array as="points">
              <mxPoint x="220" y="1640" />
              <mxPoint x="452" y="1640" />
            </Array>
          </mxGeometry>
        </mxCell>
        <mxCell id="vzBMWgb7QnxMKiiZ0FVF-5" value="Репозиторії" style="rounded=1;whiteSpace=wrap;html=1;" parent="1" vertex="1">
          <mxGeometry x="160" y="1570" width="120" height="60" as="geometry" />
        </mxCell>
        <mxCell id="vzBMWgb7QnxMKiiZ0FVF-11" value="Мапери" style="rounded=1;whiteSpace=wrap;html=1;" parent="1" vertex="1">
          <mxGeometry x="360" y="1480" width="120" height="60" as="geometry" />
        </mxCell>
        <mxCell id="vzBMWgb7QnxMKiiZ0FVF-13" value="Користувачі" style="rounded=1;whiteSpace=wrap;html=1;" parent="1" vertex="1">
          <mxGeometry x="-70" y="1670" width="120" height="60" as="geometry" />
        </mxCell>
        <mxCell id="vzBMWgb7QnxMKiiZ0FVF-14" value="Турніри" style="rounded=1;whiteSpace=wrap;html=1;" parent="1" vertex="1">
          <mxGeometry x="240" y="1670" width="120" height="60" as="geometry" />
        </mxCell>
        <mxCell id="vzBMWgb7QnxMKiiZ0FVF-15" value="Ролі" style="rounded=1;whiteSpace=wrap;html=1;" parent="1" vertex="1">
          <mxGeometry x="80" y="1670" width="120" height="60" as="geometry" />
        </mxCell>
        <mxCell id="vzBMWgb7QnxMKiiZ0FVF-16" value="Питання" style="rounded=1;whiteSpace=wrap;html=1;" parent="1" vertex="1">
          <mxGeometry x="392" y="1670" width="120" height="60" as="geometry" />
        </mxCell>
        <mxCell id="3KrHSZeLOVXQM1Te_Qw3-1" value="Відвідувач&lt;div&gt;&lt;br&gt;&lt;/div&gt;" style="shape=umlActor;verticalLabelPosition=bottom;verticalAlign=top;html=1;outlineConnect=0;" parent="1" vertex="1">
          <mxGeometry x="-790" y="460" width="30" height="60" as="geometry" />
        </mxCell>
        <mxCell id="3KrHSZeLOVXQM1Te_Qw3-2" value="Користувач" style="shape=umlActor;verticalLabelPosition=bottom;verticalAlign=top;html=1;outlineConnect=0;" parent="1" vertex="1">
          <mxGeometry x="-780" y="140" width="30" height="60" as="geometry" />
        </mxCell>
        <mxCell id="3KrHSZeLOVXQM1Te_Qw3-4" value="Адміністратор" style="shape=umlActor;verticalLabelPosition=bottom;verticalAlign=top;html=1;outlineConnect=0;" parent="1" vertex="1">
          <mxGeometry x="-280" y="320" width="30" height="60" as="geometry" />
        </mxCell>
        <mxCell id="3KrHSZeLOVXQM1Te_Qw3-6" value="Перегляд питань та турнірів" style="ellipse;whiteSpace=wrap;html=1;strokeColor=default;" parent="1" vertex="1">
          <mxGeometry x="-580" y="380" width="120" height="80" as="geometry" />
        </mxCell>
        <mxCell id="3KrHSZeLOVXQM1Te_Qw3-7" value="Вхід та реєстрація&amp;nbsp;" style="ellipse;whiteSpace=wrap;html=1;" parent="1" vertex="1">
          <mxGeometry x="-595" y="520" width="120" height="80" as="geometry" />
        </mxCell>
        <mxCell id="3KrHSZeLOVXQM1Te_Qw3-8" value="Додавання турніру" style="ellipse;whiteSpace=wrap;html=1;" parent="1" vertex="1">
          <mxGeometry x="-533" y="50" width="120" height="80" as="geometry" />
        </mxCell>
        <mxCell id="3KrHSZeLOVXQM1Te_Qw3-9" value="Модерування турніру" style="ellipse;whiteSpace=wrap;html=1;" parent="1" vertex="1">
          <mxGeometry x="-460" y="435" width="120" height="80" as="geometry" />
        </mxCell>
        <mxCell id="3KrHSZeLOVXQM1Te_Qw3-10" value="Видалення та підвищення користувачів у правах" style="ellipse;whiteSpace=wrap;html=1;" parent="1" vertex="1">
          <mxGeometry x="-370" y="505" width="120" height="80" as="geometry" />
        </mxCell>
        <mxCell id="3KrHSZeLOVXQM1Te_Qw3-11" value="Генерація пакету питань" style="ellipse;whiteSpace=wrap;html=1;" parent="1" vertex="1">
          <mxGeometry x="-570" y="170" width="120" height="80" as="geometry" />
        </mxCell>
        <mxCell id="3KrHSZeLOVXQM1Te_Qw3-14" value="Зміна налаштувань платформи" style="ellipse;whiteSpace=wrap;html=1;" parent="1" vertex="1">
          <mxGeometry x="-570" y="280" width="120" height="80" as="geometry" />
        </mxCell>
        <mxCell id="3KrHSZeLOVXQM1Te_Qw3-15" value="" style="endArrow=open;html=1;rounded=0;entryX=0;entryY=0.5;entryDx=0;entryDy=0;endFill=0;" parent="1" source="3KrHSZeLOVXQM1Te_Qw3-1" target="3KrHSZeLOVXQM1Te_Qw3-6" edge="1">
          <mxGeometry width="50" height="50" relative="1" as="geometry">
            <mxPoint x="-710" y="480" as="sourcePoint" />
            <mxPoint x="-600" y="390" as="targetPoint" />
          </mxGeometry>
        </mxCell>
        <mxCell id="3KrHSZeLOVXQM1Te_Qw3-16" value="" style="endArrow=open;html=1;rounded=0;entryX=0;entryY=0.313;entryDx=0;entryDy=0;entryPerimeter=0;endFill=0;" parent="1" source="3KrHSZeLOVXQM1Te_Qw3-2" target="3KrHSZeLOVXQM1Te_Qw3-8" edge="1">
          <mxGeometry width="50" height="50" relative="1" as="geometry">
            <mxPoint x="-650" y="160" as="sourcePoint" />
            <mxPoint x="-370" y="160" as="targetPoint" />
          </mxGeometry>
        </mxCell>
        <mxCell id="3KrHSZeLOVXQM1Te_Qw3-17" value="" style="endArrow=open;html=1;rounded=0;entryX=0;entryY=0.5;entryDx=0;entryDy=0;endFill=0;" parent="1" source="3KrHSZeLOVXQM1Te_Qw3-2" target="3KrHSZeLOVXQM1Te_Qw3-6" edge="1">
          <mxGeometry width="50" height="50" relative="1" as="geometry">
            <mxPoint x="-670" y="220" as="sourcePoint" />
            <mxPoint x="-540" y="215" as="targetPoint" />
          </mxGeometry>
        </mxCell>
        <mxCell id="3KrHSZeLOVXQM1Te_Qw3-18" value="" style="endArrow=open;html=1;rounded=0;endFill=0;" parent="1" source="3KrHSZeLOVXQM1Te_Qw3-2" target="3KrHSZeLOVXQM1Te_Qw3-11" edge="1">
          <mxGeometry width="50" height="50" relative="1" as="geometry">
            <mxPoint x="-640" y="160" as="sourcePoint" />
            <mxPoint x="-715" y="360" as="targetPoint" />
          </mxGeometry>
        </mxCell>
        <mxCell id="3KrHSZeLOVXQM1Te_Qw3-20" value="" style="endArrow=open;html=1;rounded=0;entryX=0;entryY=0.5;entryDx=0;entryDy=0;endFill=0;" parent="1" source="3KrHSZeLOVXQM1Te_Qw3-1" target="3KrHSZeLOVXQM1Te_Qw3-7" edge="1">
          <mxGeometry width="50" height="50" relative="1" as="geometry">
            <mxPoint x="-730" y="480" as="sourcePoint" />
            <mxPoint x="-585" y="320" as="targetPoint" />
          </mxGeometry>
        </mxCell>
        <mxCell id="3KrHSZeLOVXQM1Te_Qw3-21" value="" style="endArrow=open;html=1;rounded=0;entryX=1;entryY=0.5;entryDx=0;entryDy=0;endFill=0;" parent="1" source="3KrHSZeLOVXQM1Te_Qw3-4" target="3KrHSZeLOVXQM1Te_Qw3-8" edge="1">
          <mxGeometry width="50" height="50" relative="1" as="geometry">
            <mxPoint x="-320" y="310" as="sourcePoint" />
            <mxPoint x="-552" y="200" as="targetPoint" />
          </mxGeometry>
        </mxCell>
        <mxCell id="3KrHSZeLOVXQM1Te_Qw3-22" value="" style="endArrow=open;html=1;rounded=0;entryX=1;entryY=0.5;entryDx=0;entryDy=0;endFill=0;" parent="1" source="3KrHSZeLOVXQM1Te_Qw3-4" target="3KrHSZeLOVXQM1Te_Qw3-11" edge="1">
          <mxGeometry width="50" height="50" relative="1" as="geometry">
            <mxPoint x="-310" y="320" as="sourcePoint" />
            <mxPoint x="-403" y="100" as="targetPoint" />
          </mxGeometry>
        </mxCell>
        <mxCell id="3KrHSZeLOVXQM1Te_Qw3-23" value="" style="endArrow=open;html=1;rounded=0;entryX=1;entryY=0.5;entryDx=0;entryDy=0;endFill=0;" parent="1" source="3KrHSZeLOVXQM1Te_Qw3-4" target="3KrHSZeLOVXQM1Te_Qw3-6" edge="1">
          <mxGeometry width="50" height="50" relative="1" as="geometry">
            <mxPoint x="-300" y="330" as="sourcePoint" />
            <mxPoint x="-440" y="220" as="targetPoint" />
          </mxGeometry>
        </mxCell>
        <mxCell id="3KrHSZeLOVXQM1Te_Qw3-24" value="" style="endArrow=open;html=1;rounded=0;entryX=1;entryY=0.5;entryDx=0;entryDy=0;endFill=0;exitX=0;exitY=0.3333333333333333;exitDx=0;exitDy=0;exitPerimeter=0;" parent="1" source="3KrHSZeLOVXQM1Te_Qw3-4" target="3KrHSZeLOVXQM1Te_Qw3-14" edge="1">
          <mxGeometry width="50" height="50" relative="1" as="geometry">
            <mxPoint x="-320" y="330" as="sourcePoint" />
            <mxPoint x="-465" y="320" as="targetPoint" />
          </mxGeometry>
        </mxCell>
        <mxCell id="3KrHSZeLOVXQM1Te_Qw3-25" value="" style="endArrow=open;html=1;rounded=0;entryX=0.833;entryY=0.075;entryDx=0;entryDy=0;entryPerimeter=0;endFill=0;" parent="1" source="3KrHSZeLOVXQM1Te_Qw3-4" target="3KrHSZeLOVXQM1Te_Qw3-9" edge="1">
          <mxGeometry width="50" height="50" relative="1" as="geometry">
            <mxPoint x="-320" y="380" as="sourcePoint" />
            <mxPoint x="-465" y="420" as="targetPoint" />
          </mxGeometry>
        </mxCell>
        <mxCell id="3KrHSZeLOVXQM1Te_Qw3-26" value="" style="endArrow=open;html=1;rounded=0;endFill=0;" parent="1" source="3KrHSZeLOVXQM1Te_Qw3-4" target="3KrHSZeLOVXQM1Te_Qw3-10" edge="1">
          <mxGeometry width="50" height="50" relative="1" as="geometry">
            <mxPoint x="-290" y="390" as="sourcePoint" />
            <mxPoint x="-363" y="451" as="targetPoint" />
          </mxGeometry>
        </mxCell>
        <mxCell id="3KrHSZeLOVXQM1Te_Qw3-27" value="" style="endArrow=open;html=1;rounded=0;endFill=0;" parent="1" source="3KrHSZeLOVXQM1Te_Qw3-2" target="3KrHSZeLOVXQM1Te_Qw3-14" edge="1">
          <mxGeometry width="50" height="50" relative="1" as="geometry">
            <mxPoint x="-630" y="190" as="sourcePoint" />
            <mxPoint x="-585" y="320" as="targetPoint" />
          </mxGeometry>
        </mxCell>
        <mxCell id="3KrHSZeLOVXQM1Te_Qw3-29" value="" style="endArrow=open;html=1;rounded=0;entryX=0;entryY=0.5;entryDx=0;entryDy=0;endFill=0;" parent="1" source="3KrHSZeLOVXQM1Te_Qw3-1" target="3KrHSZeLOVXQM1Te_Qw3-14" edge="1">
          <mxGeometry width="50" height="50" relative="1" as="geometry">
            <mxPoint x="-730" y="480" as="sourcePoint" />
            <mxPoint x="-580" y="470" as="targetPoint" />
          </mxGeometry>
        </mxCell>
        <mxCell id="KBQIxd94v6gNCqd0OYZ--13" style="edgeStyle=orthogonalEdgeStyle;rounded=0;orthogonalLoop=1;jettySize=auto;html=1;exitX=1;exitY=0.25;exitDx=0;exitDy=0;entryX=0;entryY=0.25;entryDx=0;entryDy=0;endArrow=open;endFill=0;" parent="1" source="KBQIxd94v6gNCqd0OYZ--4" target="KBQIxd94v6gNCqd0OYZ--7" edge="1">
          <mxGeometry relative="1" as="geometry" />
        </mxCell>
        <mxCell id="KBQIxd94v6gNCqd0OYZ--14" style="edgeStyle=orthogonalEdgeStyle;rounded=0;orthogonalLoop=1;jettySize=auto;html=1;exitX=0;exitY=0.75;exitDx=0;exitDy=0;entryX=1;entryY=0.75;entryDx=0;entryDy=0;endArrow=open;endFill=0;" parent="1" source="KBQIxd94v6gNCqd0OYZ--7" target="KBQIxd94v6gNCqd0OYZ--4" edge="1">
          <mxGeometry relative="1" as="geometry" />
        </mxCell>
        <mxCell id="KBQIxd94v6gNCqd0OYZ--19" style="edgeStyle=orthogonalEdgeStyle;rounded=0;orthogonalLoop=1;jettySize=auto;html=1;exitX=0.25;exitY=0;exitDx=0;exitDy=0;entryX=0.25;entryY=1;entryDx=0;entryDy=0;endArrow=open;endFill=0;" parent="1" source="KBQIxd94v6gNCqd0OYZ--7" target="KBQIxd94v6gNCqd0OYZ--8" edge="1">
          <mxGeometry relative="1" as="geometry" />
        </mxCell>
        <mxCell id="KBQIxd94v6gNCqd0OYZ--7" value="Контролери" style="rounded=0;whiteSpace=wrap;html=1;" parent="1" vertex="1">
          <mxGeometry x="-840" y="1310" width="120" height="60" as="geometry" />
        </mxCell>
        <mxCell id="KBQIxd94v6gNCqd0OYZ--21" style="edgeStyle=orthogonalEdgeStyle;rounded=0;orthogonalLoop=1;jettySize=auto;html=1;exitX=0.75;exitY=1;exitDx=0;exitDy=0;entryX=0.75;entryY=0;entryDx=0;entryDy=0;endArrow=open;endFill=0;" parent="1" source="KBQIxd94v6gNCqd0OYZ--8" target="KBQIxd94v6gNCqd0OYZ--7" edge="1">
          <mxGeometry relative="1" as="geometry" />
        </mxCell>
        <mxCell id="KBQIxd94v6gNCqd0OYZ--22" style="edgeStyle=orthogonalEdgeStyle;rounded=0;orthogonalLoop=1;jettySize=auto;html=1;exitX=1;exitY=0.25;exitDx=0;exitDy=0;entryX=0;entryY=0.25;entryDx=0;entryDy=0;endArrow=open;endFill=0;" parent="1" source="KBQIxd94v6gNCqd0OYZ--8" target="KBQIxd94v6gNCqd0OYZ--9" edge="1">
          <mxGeometry relative="1" as="geometry" />
        </mxCell>
        <mxCell id="KBQIxd94v6gNCqd0OYZ--8" value="Сервіси" style="rounded=0;whiteSpace=wrap;html=1;" parent="1" vertex="1">
          <mxGeometry x="-840" y="1190" width="120" height="60" as="geometry" />
        </mxCell>
        <mxCell id="KBQIxd94v6gNCqd0OYZ--23" style="edgeStyle=orthogonalEdgeStyle;rounded=0;orthogonalLoop=1;jettySize=auto;html=1;exitX=0;exitY=0.75;exitDx=0;exitDy=0;entryX=1;entryY=0.75;entryDx=0;entryDy=0;endArrow=open;endFill=0;" parent="1" source="KBQIxd94v6gNCqd0OYZ--9" target="KBQIxd94v6gNCqd0OYZ--8" edge="1">
          <mxGeometry relative="1" as="geometry" />
        </mxCell>
        <mxCell id="KBQIxd94v6gNCqd0OYZ--41" style="edgeStyle=orthogonalEdgeStyle;rounded=0;orthogonalLoop=1;jettySize=auto;html=1;exitX=1;exitY=0.25;exitDx=0;exitDy=0;endArrow=open;endFill=0;entryX=-0.025;entryY=0.355;entryDx=0;entryDy=0;entryPerimeter=0;" parent="1" source="KBQIxd94v6gNCqd0OYZ--9" target="KBQIxd94v6gNCqd0OYZ--38" edge="1">
          <mxGeometry relative="1" as="geometry">
            <mxPoint x="-360" y="1205.2857142857142" as="targetPoint" />
          </mxGeometry>
        </mxCell>
        <mxCell id="KBQIxd94v6gNCqd0OYZ--9" value="Репозиторії" style="rounded=0;whiteSpace=wrap;html=1;" parent="1" vertex="1">
          <mxGeometry x="-653" y="1190" width="120" height="60" as="geometry" />
        </mxCell>
        <mxCell id="KBQIxd94v6gNCqd0OYZ--24" style="edgeStyle=orthogonalEdgeStyle;rounded=0;orthogonalLoop=1;jettySize=auto;html=1;endArrow=open;endFill=0;" parent="1" source="KBQIxd94v6gNCqd0OYZ--10" target="KBQIxd94v6gNCqd0OYZ--9" edge="1">
          <mxGeometry relative="1" as="geometry" />
        </mxCell>
        <mxCell id="KBQIxd94v6gNCqd0OYZ--10" value="Моделі" style="rounded=0;whiteSpace=wrap;html=1;" parent="1" vertex="1">
          <mxGeometry x="-653" y="1310" width="120" height="60" as="geometry" />
        </mxCell>
        <mxCell id="KBQIxd94v6gNCqd0OYZ--15" value="REST API" style="text;html=1;align=center;verticalAlign=middle;whiteSpace=wrap;rounded=0;" parent="1" vertex="1">
          <mxGeometry x="-1000" y="1290" width="60" height="30" as="geometry" />
        </mxCell>
        <mxCell id="KBQIxd94v6gNCqd0OYZ--40" style="edgeStyle=orthogonalEdgeStyle;rounded=0;orthogonalLoop=1;jettySize=auto;html=1;exitX=0;exitY=0.5;exitDx=0;exitDy=0;exitPerimeter=0;entryX=1;entryY=0.5;entryDx=0;entryDy=0;endArrow=open;endFill=0;" parent="1" source="KBQIxd94v6gNCqd0OYZ--38" target="KBQIxd94v6gNCqd0OYZ--9" edge="1">
          <mxGeometry relative="1" as="geometry" />
        </mxCell>
        <mxCell id="KBQIxd94v6gNCqd0OYZ--38" value="База&amp;nbsp;&lt;br&gt;Даних" style="strokeWidth=2;html=1;shape=mxgraph.flowchart.database;whiteSpace=wrap;" parent="1" vertex="1">
          <mxGeometry x="-390" y="1170" width="60" height="100" as="geometry" />
        </mxCell>
        <mxCell id="KBQIxd94v6gNCqd0OYZ--54" value="Клієнт" style="swimlane;" parent="1" vertex="1">
          <mxGeometry x="-1540" y="1100" width="519" height="460" as="geometry">
            <mxRectangle x="-1461" y="1100" width="80" height="30" as="alternateBounds" />
          </mxGeometry>
        </mxCell>
        <mxCell id="RCzUVea_NPZqQcadCIOr-12" style="edgeStyle=orthogonalEdgeStyle;rounded=0;orthogonalLoop=1;jettySize=auto;html=1;exitX=1;exitY=0.75;exitDx=0;exitDy=0;entryX=0;entryY=0.75;entryDx=0;entryDy=0;endArrow=open;endFill=0;" parent="KBQIxd94v6gNCqd0OYZ--54" source="KBQIxd94v6gNCqd0OYZ--2" target="KBQIxd94v6gNCqd0OYZ--1" edge="1">
          <mxGeometry relative="1" as="geometry" />
        </mxCell>
        <mxCell id="KBQIxd94v6gNCqd0OYZ--2" value="Сторінки на відображення" style="rounded=0;whiteSpace=wrap;html=1;" parent="KBQIxd94v6gNCqd0OYZ--54" vertex="1">
          <mxGeometry x="31" y="210" width="120" height="60" as="geometry" />
        </mxCell>
        <mxCell id="KBQIxd94v6gNCqd0OYZ--42" value="Директиви" style="rounded=0;whiteSpace=wrap;html=1;" parent="KBQIxd94v6gNCqd0OYZ--54" vertex="1">
          <mxGeometry x="31" y="320" width="120" height="60" as="geometry" />
        </mxCell>
        <mxCell id="KBQIxd94v6gNCqd0OYZ--43" value="" style="edgeStyle=orthogonalEdgeStyle;rounded=0;orthogonalLoop=1;jettySize=auto;html=1;endArrow=open;endFill=0;" parent="KBQIxd94v6gNCqd0OYZ--54" source="KBQIxd94v6gNCqd0OYZ--42" target="KBQIxd94v6gNCqd0OYZ--2" edge="1">
          <mxGeometry relative="1" as="geometry" />
        </mxCell>
        <mxCell id="KBQIxd94v6gNCqd0OYZ--1" value="Компоненти" style="rounded=0;whiteSpace=wrap;html=1;" parent="KBQIxd94v6gNCqd0OYZ--54" vertex="1">
          <mxGeometry x="199.5" y="210" width="120" height="60" as="geometry" />
        </mxCell>
        <mxCell id="KBQIxd94v6gNCqd0OYZ--5" style="edgeStyle=orthogonalEdgeStyle;rounded=0;orthogonalLoop=1;jettySize=auto;html=1;endArrow=open;endFill=0;entryX=1;entryY=0.25;entryDx=0;entryDy=0;exitX=0;exitY=0.25;exitDx=0;exitDy=0;" parent="KBQIxd94v6gNCqd0OYZ--54" source="KBQIxd94v6gNCqd0OYZ--1" target="KBQIxd94v6gNCqd0OYZ--2" edge="1">
          <mxGeometry relative="1" as="geometry">
            <mxPoint x="200" y="280" as="targetPoint" />
            <Array as="points" />
          </mxGeometry>
        </mxCell>
        <mxCell id="RCzUVea_NPZqQcadCIOr-2" style="edgeStyle=orthogonalEdgeStyle;rounded=0;orthogonalLoop=1;jettySize=auto;html=1;endArrow=open;endFill=0;" parent="KBQIxd94v6gNCqd0OYZ--54" source="KBQIxd94v6gNCqd0OYZ--4" target="KBQIxd94v6gNCqd0OYZ--1" edge="1">
          <mxGeometry relative="1" as="geometry" />
        </mxCell>
        <mxCell id="KBQIxd94v6gNCqd0OYZ--4" value="Сервіси" style="rounded=0;whiteSpace=wrap;html=1;" parent="KBQIxd94v6gNCqd0OYZ--54" vertex="1">
          <mxGeometry x="350" y="210" width="120" height="60" as="geometry" />
        </mxCell>
        <mxCell id="KBQIxd94v6gNCqd0OYZ--55" value="Сервер" style="swimlane;" parent="1" vertex="1">
          <mxGeometry x="-915" y="1100" width="440" height="460" as="geometry" />
        </mxCell>
        <mxCell id="oXPfm4fW8wteX0K--Z_t-3" value="" style="rounded=0;whiteSpace=wrap;html=1;" parent="1" vertex="1">
          <mxGeometry x="30" y="1900" width="120" height="60" as="geometry" />
        </mxCell>
        <mxCell id="oXPfm4fW8wteX0K--Z_t-4" value="" style="rounded=0;whiteSpace=wrap;html=1;" parent="1" vertex="1">
          <mxGeometry x="-70" y="-240" width="120" height="60" as="geometry" />
        </mxCell>
        <mxCell id="oXPfm4fW8wteX0K--Z_t-5" value="" style="rounded=0;whiteSpace=wrap;html=1;" parent="1" vertex="1">
          <mxGeometry x="-1710" y="1230" width="120" height="60" as="geometry" />
        </mxCell>
        <mxCell id="oXPfm4fW8wteX0K--Z_t-6" value="" style="rounded=0;whiteSpace=wrap;html=1;" parent="1" vertex="1">
          <mxGeometry x="1880" y="1055" width="120" height="60" as="geometry" />
        </mxCell>
      </root>
    </mxGraphModel>
  </diagram>
  <diagram id="MaAF14bsBuOXOrL2QHLI" name="дерево проблем">
    <mxGraphModel dx="2207" dy="781" grid="1" gridSize="10" guides="1" tooltips="1" connect="1" arrows="1" fold="1" page="1" pageScale="1" pageWidth="827" pageHeight="1169" math="0" shadow="0">
      <root>
        <mxCell id="0" />
        <mxCell id="1" parent="0" />
        <mxCell id="HH8XU_hjU_B5_bPJ0eZE-1" style="edgeStyle=orthogonalEdgeStyle;rounded=0;orthogonalLoop=1;jettySize=auto;html=1;entryX=0.5;entryY=0;entryDx=0;entryDy=0;endArrow=none;endFill=0;" parent="1" source="HH8XU_hjU_B5_bPJ0eZE-3" target="HH8XU_hjU_B5_bPJ0eZE-5" edge="1">
          <mxGeometry relative="1" as="geometry">
            <Array as="points">
              <mxPoint x="370" y="270" />
              <mxPoint x="150" y="270" />
            </Array>
          </mxGeometry>
        </mxCell>
        <mxCell id="HH8XU_hjU_B5_bPJ0eZE-2" style="edgeStyle=orthogonalEdgeStyle;rounded=0;orthogonalLoop=1;jettySize=auto;html=1;endArrow=none;endFill=0;" parent="1" source="HH8XU_hjU_B5_bPJ0eZE-3" target="HH8XU_hjU_B5_bPJ0eZE-9" edge="1">
          <mxGeometry relative="1" as="geometry">
            <Array as="points">
              <mxPoint x="570" y="270" />
            </Array>
          </mxGeometry>
        </mxCell>
        <mxCell id="HH8XU_hjU_B5_bPJ0eZE-3" value="&lt;font face=&quot;Helvetica&quot; style=&quot;&quot;&gt;Бажаючі пограти в ЩДК не мають єдиної мультимовної бази&amp;nbsp;&lt;span style=&quot;line-height: 150%;&quot;&gt;&lt;font style=&quot;font-size: 12px;&quot;&gt;для &lt;/font&gt;накопичення, зберігання та організації питань-відповідей для інтелектуальної&lt;br&gt;гри &quot;Що? Де? Коли?&quot;&lt;/span&gt;&lt;/font&gt;" style="rounded=1;whiteSpace=wrap;html=1;" parent="1" vertex="1">
          <mxGeometry x="240" y="150" width="260" height="100" as="geometry" />
        </mxCell>
        <mxCell id="HH8XU_hjU_B5_bPJ0eZE-5" value="недостатня кількість питань українською мовою" style="rounded=1;whiteSpace=wrap;html=1;" parent="1" vertex="1">
          <mxGeometry x="70" y="370" width="160" height="60" as="geometry" />
        </mxCell>
        <mxCell id="HH8XU_hjU_B5_bPJ0eZE-6" style="edgeStyle=orthogonalEdgeStyle;rounded=0;orthogonalLoop=1;jettySize=auto;html=1;endArrow=none;endFill=0;" parent="1" source="HH8XU_hjU_B5_bPJ0eZE-9" target="HH8XU_hjU_B5_bPJ0eZE-10" edge="1">
          <mxGeometry relative="1" as="geometry">
            <Array as="points">
              <mxPoint x="570" y="370" />
              <mxPoint x="434" y="370" />
            </Array>
          </mxGeometry>
        </mxCell>
        <mxCell id="HH8XU_hjU_B5_bPJ0eZE-7" style="edgeStyle=orthogonalEdgeStyle;rounded=0;orthogonalLoop=1;jettySize=auto;html=1;exitX=0.5;exitY=1;exitDx=0;exitDy=0;endArrow=none;endFill=0;" parent="1" source="HH8XU_hjU_B5_bPJ0eZE-9" target="HH8XU_hjU_B5_bPJ0eZE-11" edge="1">
          <mxGeometry relative="1" as="geometry">
            <Array as="points" />
          </mxGeometry>
        </mxCell>
        <mxCell id="HH8XU_hjU_B5_bPJ0eZE-8" style="edgeStyle=orthogonalEdgeStyle;rounded=0;orthogonalLoop=1;jettySize=auto;html=1;entryX=0.5;entryY=0;entryDx=0;entryDy=0;endArrow=none;endFill=0;" parent="1" source="HH8XU_hjU_B5_bPJ0eZE-9" target="HH8XU_hjU_B5_bPJ0eZE-12" edge="1">
          <mxGeometry relative="1" as="geometry">
            <Array as="points">
              <mxPoint x="570" y="370" />
              <mxPoint x="710" y="370" />
            </Array>
          </mxGeometry>
        </mxCell>
        <mxCell id="HH8XU_hjU_B5_bPJ0eZE-9" value="необхідність витрачати велику кількість часу на формування переліку питань" style="rounded=1;whiteSpace=wrap;html=1;" parent="1" vertex="1">
          <mxGeometry x="500" y="300" width="140" height="60" as="geometry" />
        </mxCell>
        <mxCell id="HH8XU_hjU_B5_bPJ0eZE-10" value="наявність дублікатів питань" style="rounded=1;whiteSpace=wrap;html=1;" parent="1" vertex="1">
          <mxGeometry x="374" y="440" width="120" height="60" as="geometry" />
        </mxCell>
        <mxCell id="HH8XU_hjU_B5_bPJ0eZE-11" value="відсутність єдиного джерела інформації" style="rounded=1;whiteSpace=wrap;html=1;" parent="1" vertex="1">
          <mxGeometry x="510" y="440" width="120" height="60" as="geometry" />
        </mxCell>
        <mxCell id="HH8XU_hjU_B5_bPJ0eZE-12" value="необхідність самостійно визначати рівень складності питання" style="rounded=1;whiteSpace=wrap;html=1;" parent="1" vertex="1">
          <mxGeometry x="650" y="440" width="120" height="60" as="geometry" />
        </mxCell>
        <mxCell id="HH8XU_hjU_B5_bPJ0eZE-13" value="" style="rounded=0;whiteSpace=wrap;html=1;" parent="1" vertex="1">
          <mxGeometry x="-80" y="370" width="120" height="60" as="geometry" />
        </mxCell>
        <mxCell id="HH8XU_hjU_B5_bPJ0eZE-14" value="" style="rounded=0;whiteSpace=wrap;html=1;" parent="1" vertex="1">
          <mxGeometry x="320" y="50" width="120" height="60" as="geometry" />
        </mxCell>
        <mxCell id="HH8XU_hjU_B5_bPJ0eZE-15" value="" style="rounded=0;whiteSpace=wrap;html=1;" parent="1" vertex="1">
          <mxGeometry x="340" y="540" width="120" height="60" as="geometry" />
        </mxCell>
        <mxCell id="HH8XU_hjU_B5_bPJ0eZE-16" value="" style="rounded=0;whiteSpace=wrap;html=1;" parent="1" vertex="1">
          <mxGeometry x="770" y="290" width="120" height="60" as="geometry" />
        </mxCell>
      </root>
    </mxGraphModel>
  </diagram>
  <diagram id="OYW_GPmYF8efxBxogol9" name="структура застосунку">
    <mxGraphModel dx="4452" dy="1119" grid="1" gridSize="10" guides="1" tooltips="1" connect="1" arrows="1" fold="1" page="1" pageScale="1" pageWidth="827" pageHeight="1169" math="0" shadow="0">
      <root>
        <mxCell id="0" />
        <mxCell id="1" parent="0" />
        <mxCell id="7AYUzp_17QcLYqKIqNgg-1" style="edgeStyle=orthogonalEdgeStyle;rounded=0;orthogonalLoop=1;jettySize=auto;html=1;exitX=1;exitY=0.25;exitDx=0;exitDy=0;entryX=0;entryY=0.25;entryDx=0;entryDy=0;endArrow=open;endFill=0;" edge="1" parent="1" source="7AYUzp_17QcLYqKIqNgg-24" target="7AYUzp_17QcLYqKIqNgg-4">
          <mxGeometry relative="1" as="geometry" />
        </mxCell>
        <mxCell id="7AYUzp_17QcLYqKIqNgg-2" style="edgeStyle=orthogonalEdgeStyle;rounded=0;orthogonalLoop=1;jettySize=auto;html=1;exitX=0;exitY=0.75;exitDx=0;exitDy=0;entryX=1;entryY=0.75;entryDx=0;entryDy=0;endArrow=open;endFill=0;" edge="1" parent="1" source="7AYUzp_17QcLYqKIqNgg-4" target="7AYUzp_17QcLYqKIqNgg-24">
          <mxGeometry relative="1" as="geometry" />
        </mxCell>
        <mxCell id="7AYUzp_17QcLYqKIqNgg-3" style="edgeStyle=orthogonalEdgeStyle;rounded=0;orthogonalLoop=1;jettySize=auto;html=1;exitX=0.25;exitY=0;exitDx=0;exitDy=0;entryX=0.25;entryY=1;entryDx=0;entryDy=0;endArrow=open;endFill=0;" edge="1" parent="1" source="7AYUzp_17QcLYqKIqNgg-4" target="7AYUzp_17QcLYqKIqNgg-7">
          <mxGeometry relative="1" as="geometry" />
        </mxCell>
        <mxCell id="7AYUzp_17QcLYqKIqNgg-4" value="Контролери" style="rounded=0;whiteSpace=wrap;html=1;" vertex="1" parent="1">
          <mxGeometry x="-840" y="1310" width="120" height="60" as="geometry" />
        </mxCell>
        <mxCell id="7AYUzp_17QcLYqKIqNgg-5" style="edgeStyle=orthogonalEdgeStyle;rounded=0;orthogonalLoop=1;jettySize=auto;html=1;exitX=0.75;exitY=1;exitDx=0;exitDy=0;entryX=0.75;entryY=0;entryDx=0;entryDy=0;endArrow=open;endFill=0;" edge="1" parent="1" source="7AYUzp_17QcLYqKIqNgg-7" target="7AYUzp_17QcLYqKIqNgg-4">
          <mxGeometry relative="1" as="geometry" />
        </mxCell>
        <mxCell id="7AYUzp_17QcLYqKIqNgg-6" style="edgeStyle=orthogonalEdgeStyle;rounded=0;orthogonalLoop=1;jettySize=auto;html=1;exitX=1;exitY=0.25;exitDx=0;exitDy=0;entryX=0;entryY=0.25;entryDx=0;entryDy=0;endArrow=open;endFill=0;" edge="1" parent="1" source="7AYUzp_17QcLYqKIqNgg-7" target="7AYUzp_17QcLYqKIqNgg-10">
          <mxGeometry relative="1" as="geometry" />
        </mxCell>
        <mxCell id="7AYUzp_17QcLYqKIqNgg-7" value="Сервіси" style="rounded=0;whiteSpace=wrap;html=1;" vertex="1" parent="1">
          <mxGeometry x="-840" y="1190" width="120" height="60" as="geometry" />
        </mxCell>
        <mxCell id="7AYUzp_17QcLYqKIqNgg-8" style="edgeStyle=orthogonalEdgeStyle;rounded=0;orthogonalLoop=1;jettySize=auto;html=1;exitX=0;exitY=0.75;exitDx=0;exitDy=0;entryX=1;entryY=0.75;entryDx=0;entryDy=0;endArrow=open;endFill=0;" edge="1" parent="1" source="7AYUzp_17QcLYqKIqNgg-10" target="7AYUzp_17QcLYqKIqNgg-7">
          <mxGeometry relative="1" as="geometry" />
        </mxCell>
        <mxCell id="7AYUzp_17QcLYqKIqNgg-9" style="edgeStyle=orthogonalEdgeStyle;rounded=0;orthogonalLoop=1;jettySize=auto;html=1;exitX=1;exitY=0.25;exitDx=0;exitDy=0;endArrow=open;endFill=0;entryX=-0.025;entryY=0.355;entryDx=0;entryDy=0;entryPerimeter=0;" edge="1" parent="1" source="7AYUzp_17QcLYqKIqNgg-10" target="7AYUzp_17QcLYqKIqNgg-15">
          <mxGeometry relative="1" as="geometry">
            <mxPoint x="-360" y="1205.2857142857142" as="targetPoint" />
          </mxGeometry>
        </mxCell>
        <mxCell id="7AYUzp_17QcLYqKIqNgg-10" value="Репозиторії" style="rounded=0;whiteSpace=wrap;html=1;" vertex="1" parent="1">
          <mxGeometry x="-653" y="1190" width="120" height="60" as="geometry" />
        </mxCell>
        <mxCell id="7AYUzp_17QcLYqKIqNgg-11" style="edgeStyle=orthogonalEdgeStyle;rounded=0;orthogonalLoop=1;jettySize=auto;html=1;endArrow=open;endFill=0;" edge="1" parent="1" source="7AYUzp_17QcLYqKIqNgg-12" target="7AYUzp_17QcLYqKIqNgg-10">
          <mxGeometry relative="1" as="geometry" />
        </mxCell>
        <mxCell id="7AYUzp_17QcLYqKIqNgg-12" value="Моделі" style="rounded=0;whiteSpace=wrap;html=1;" vertex="1" parent="1">
          <mxGeometry x="-653" y="1310" width="120" height="60" as="geometry" />
        </mxCell>
        <mxCell id="7AYUzp_17QcLYqKIqNgg-13" value="REST API" style="text;html=1;align=center;verticalAlign=middle;whiteSpace=wrap;rounded=0;" vertex="1" parent="1">
          <mxGeometry x="-1000" y="1290" width="60" height="30" as="geometry" />
        </mxCell>
        <mxCell id="7AYUzp_17QcLYqKIqNgg-14" style="edgeStyle=orthogonalEdgeStyle;rounded=0;orthogonalLoop=1;jettySize=auto;html=1;exitX=0;exitY=0.5;exitDx=0;exitDy=0;exitPerimeter=0;entryX=1;entryY=0.5;entryDx=0;entryDy=0;endArrow=open;endFill=0;" edge="1" parent="1" source="7AYUzp_17QcLYqKIqNgg-15" target="7AYUzp_17QcLYqKIqNgg-10">
          <mxGeometry relative="1" as="geometry" />
        </mxCell>
        <mxCell id="7AYUzp_17QcLYqKIqNgg-15" value="База&amp;nbsp;&lt;br&gt;Даних" style="strokeWidth=2;html=1;shape=mxgraph.flowchart.database;whiteSpace=wrap;" vertex="1" parent="1">
          <mxGeometry x="-390" y="1170" width="60" height="100" as="geometry" />
        </mxCell>
        <mxCell id="7AYUzp_17QcLYqKIqNgg-16" value="Клієнт" style="swimlane;" vertex="1" parent="1">
          <mxGeometry x="-1540" y="1100" width="519" height="460" as="geometry">
            <mxRectangle x="-1461" y="1100" width="80" height="30" as="alternateBounds" />
          </mxGeometry>
        </mxCell>
        <mxCell id="7AYUzp_17QcLYqKIqNgg-17" style="edgeStyle=orthogonalEdgeStyle;rounded=0;orthogonalLoop=1;jettySize=auto;html=1;exitX=1;exitY=0.75;exitDx=0;exitDy=0;entryX=0;entryY=0.75;entryDx=0;entryDy=0;endArrow=open;endFill=0;" edge="1" parent="7AYUzp_17QcLYqKIqNgg-16" source="7AYUzp_17QcLYqKIqNgg-18" target="7AYUzp_17QcLYqKIqNgg-21">
          <mxGeometry relative="1" as="geometry" />
        </mxCell>
        <mxCell id="7AYUzp_17QcLYqKIqNgg-18" value="Сторінки на відображення" style="rounded=0;whiteSpace=wrap;html=1;" vertex="1" parent="7AYUzp_17QcLYqKIqNgg-16">
          <mxGeometry x="31" y="210" width="120" height="60" as="geometry" />
        </mxCell>
        <mxCell id="7AYUzp_17QcLYqKIqNgg-19" value="Директиви" style="rounded=0;whiteSpace=wrap;html=1;" vertex="1" parent="7AYUzp_17QcLYqKIqNgg-16">
          <mxGeometry x="31" y="320" width="120" height="60" as="geometry" />
        </mxCell>
        <mxCell id="7AYUzp_17QcLYqKIqNgg-20" value="" style="edgeStyle=orthogonalEdgeStyle;rounded=0;orthogonalLoop=1;jettySize=auto;html=1;endArrow=open;endFill=0;" edge="1" parent="7AYUzp_17QcLYqKIqNgg-16" source="7AYUzp_17QcLYqKIqNgg-19" target="7AYUzp_17QcLYqKIqNgg-18">
          <mxGeometry relative="1" as="geometry" />
        </mxCell>
        <mxCell id="7AYUzp_17QcLYqKIqNgg-21" value="Компоненти" style="rounded=0;whiteSpace=wrap;html=1;" vertex="1" parent="7AYUzp_17QcLYqKIqNgg-16">
          <mxGeometry x="199.5" y="210" width="120" height="60" as="geometry" />
        </mxCell>
        <mxCell id="7AYUzp_17QcLYqKIqNgg-22" style="edgeStyle=orthogonalEdgeStyle;rounded=0;orthogonalLoop=1;jettySize=auto;html=1;endArrow=open;endFill=0;entryX=1;entryY=0.25;entryDx=0;entryDy=0;exitX=0;exitY=0.25;exitDx=0;exitDy=0;" edge="1" parent="7AYUzp_17QcLYqKIqNgg-16" source="7AYUzp_17QcLYqKIqNgg-21" target="7AYUzp_17QcLYqKIqNgg-18">
          <mxGeometry relative="1" as="geometry">
            <mxPoint x="200" y="280" as="targetPoint" />
            <Array as="points" />
          </mxGeometry>
        </mxCell>
        <mxCell id="7AYUzp_17QcLYqKIqNgg-23" style="edgeStyle=orthogonalEdgeStyle;rounded=0;orthogonalLoop=1;jettySize=auto;html=1;endArrow=open;endFill=0;" edge="1" parent="7AYUzp_17QcLYqKIqNgg-16" source="7AYUzp_17QcLYqKIqNgg-24" target="7AYUzp_17QcLYqKIqNgg-21">
          <mxGeometry relative="1" as="geometry" />
        </mxCell>
        <mxCell id="7AYUzp_17QcLYqKIqNgg-24" value="Сервіси" style="rounded=0;whiteSpace=wrap;html=1;" vertex="1" parent="7AYUzp_17QcLYqKIqNgg-16">
          <mxGeometry x="350" y="210" width="120" height="60" as="geometry" />
        </mxCell>
        <mxCell id="7AYUzp_17QcLYqKIqNgg-25" value="Сервер" style="swimlane;" vertex="1" parent="1">
          <mxGeometry x="-915" y="1100" width="440" height="460" as="geometry" />
        </mxCell>
        <mxCell id="7AYUzp_17QcLYqKIqNgg-26" value="" style="rounded=0;whiteSpace=wrap;html=1;" vertex="1" parent="1">
          <mxGeometry x="-1710" y="1230" width="120" height="60" as="geometry" />
        </mxCell>
        <mxCell id="7AYUzp_17QcLYqKIqNgg-27" value="" style="rounded=0;whiteSpace=wrap;html=1;" vertex="1" parent="1">
          <mxGeometry x="-1030" y="990" width="120" height="60" as="geometry" />
        </mxCell>
        <mxCell id="7AYUzp_17QcLYqKIqNgg-28" value="" style="rounded=0;whiteSpace=wrap;html=1;" vertex="1" parent="1">
          <mxGeometry x="-1021" y="1630" width="120" height="60" as="geometry" />
        </mxCell>
        <mxCell id="7AYUzp_17QcLYqKIqNgg-29" value="" style="rounded=0;whiteSpace=wrap;html=1;" vertex="1" parent="1">
          <mxGeometry x="-290" y="1230" width="120" height="60" as="geometry" />
        </mxCell>
      </root>
    </mxGraphModel>
  </diagram>
  <diagram id="1EaOGJscUQvwUHtnlVTq" name="структура бд">
    <mxGraphModel dx="553" dy="783" grid="1" gridSize="10" guides="1" tooltips="1" connect="1" arrows="1" fold="1" page="1" pageScale="1" pageWidth="827" pageHeight="1169" math="0" shadow="0">
      <root>
        <mxCell id="0" />
        <mxCell id="1" parent="0" />
        <mxCell id="zZxjoeH3hMNYsFJwBKhE-1" value="tournaments" style="shape=table;startSize=30;container=1;collapsible=1;childLayout=tableLayout;fixedRows=1;rowLines=0;fontStyle=1;align=center;resizeLast=1;html=1;" vertex="1" parent="1">
          <mxGeometry x="1380" y="980" width="180" height="180" as="geometry">
            <mxRectangle x="1010" y="980" width="110" height="30" as="alternateBounds" />
          </mxGeometry>
        </mxCell>
        <mxCell id="zZxjoeH3hMNYsFJwBKhE-2" value="" style="shape=tableRow;horizontal=0;startSize=0;swimlaneHead=0;swimlaneBody=0;fillColor=none;collapsible=0;dropTarget=0;points=[[0,0.5],[1,0.5]];portConstraint=eastwest;top=0;left=0;right=0;bottom=1;" vertex="1" parent="zZxjoeH3hMNYsFJwBKhE-1">
          <mxGeometry y="30" width="180" height="30" as="geometry" />
        </mxCell>
        <mxCell id="zZxjoeH3hMNYsFJwBKhE-3" value="PK" style="shape=partialRectangle;connectable=0;fillColor=none;top=0;left=0;bottom=0;right=0;fontStyle=1;overflow=hidden;whiteSpace=wrap;html=1;" vertex="1" parent="zZxjoeH3hMNYsFJwBKhE-2">
          <mxGeometry width="30" height="30" as="geometry">
            <mxRectangle width="30" height="30" as="alternateBounds" />
          </mxGeometry>
        </mxCell>
        <mxCell id="zZxjoeH3hMNYsFJwBKhE-4" value="Id" style="shape=partialRectangle;connectable=0;fillColor=none;top=0;left=0;bottom=0;right=0;align=left;spacingLeft=6;fontStyle=5;overflow=hidden;whiteSpace=wrap;html=1;" vertex="1" parent="zZxjoeH3hMNYsFJwBKhE-2">
          <mxGeometry x="30" width="150" height="30" as="geometry">
            <mxRectangle width="150" height="30" as="alternateBounds" />
          </mxGeometry>
        </mxCell>
        <mxCell id="zZxjoeH3hMNYsFJwBKhE-5" value="" style="shape=tableRow;horizontal=0;startSize=0;swimlaneHead=0;swimlaneBody=0;fillColor=none;collapsible=0;dropTarget=0;points=[[0,0.5],[1,0.5]];portConstraint=eastwest;top=0;left=0;right=0;bottom=0;" vertex="1" parent="zZxjoeH3hMNYsFJwBKhE-1">
          <mxGeometry y="60" width="180" height="30" as="geometry" />
        </mxCell>
        <mxCell id="zZxjoeH3hMNYsFJwBKhE-6" value="" style="shape=partialRectangle;connectable=0;fillColor=none;top=0;left=0;bottom=0;right=0;editable=1;overflow=hidden;whiteSpace=wrap;html=1;" vertex="1" parent="zZxjoeH3hMNYsFJwBKhE-5">
          <mxGeometry width="30" height="30" as="geometry">
            <mxRectangle width="30" height="30" as="alternateBounds" />
          </mxGeometry>
        </mxCell>
        <mxCell id="zZxjoeH3hMNYsFJwBKhE-7" value="date" style="shape=partialRectangle;connectable=0;fillColor=none;top=0;left=0;bottom=0;right=0;align=left;spacingLeft=6;overflow=hidden;whiteSpace=wrap;html=1;" vertex="1" parent="zZxjoeH3hMNYsFJwBKhE-5">
          <mxGeometry x="30" width="150" height="30" as="geometry">
            <mxRectangle width="150" height="30" as="alternateBounds" />
          </mxGeometry>
        </mxCell>
        <mxCell id="zZxjoeH3hMNYsFJwBKhE-8" value="" style="shape=tableRow;horizontal=0;startSize=0;swimlaneHead=0;swimlaneBody=0;fillColor=none;collapsible=0;dropTarget=0;points=[[0,0.5],[1,0.5]];portConstraint=eastwest;top=0;left=0;right=0;bottom=0;" vertex="1" parent="zZxjoeH3hMNYsFJwBKhE-1">
          <mxGeometry y="90" width="180" height="30" as="geometry" />
        </mxCell>
        <mxCell id="zZxjoeH3hMNYsFJwBKhE-9" value="" style="shape=partialRectangle;connectable=0;fillColor=none;top=0;left=0;bottom=0;right=0;editable=1;overflow=hidden;whiteSpace=wrap;html=1;" vertex="1" parent="zZxjoeH3hMNYsFJwBKhE-8">
          <mxGeometry width="30" height="30" as="geometry">
            <mxRectangle width="30" height="30" as="alternateBounds" />
          </mxGeometry>
        </mxCell>
        <mxCell id="zZxjoeH3hMNYsFJwBKhE-10" value="category" style="shape=partialRectangle;connectable=0;fillColor=none;top=0;left=0;bottom=0;right=0;align=left;spacingLeft=6;overflow=hidden;whiteSpace=wrap;html=1;" vertex="1" parent="zZxjoeH3hMNYsFJwBKhE-8">
          <mxGeometry x="30" width="150" height="30" as="geometry">
            <mxRectangle width="150" height="30" as="alternateBounds" />
          </mxGeometry>
        </mxCell>
        <mxCell id="zZxjoeH3hMNYsFJwBKhE-11" value="" style="shape=tableRow;horizontal=0;startSize=0;swimlaneHead=0;swimlaneBody=0;fillColor=none;collapsible=0;dropTarget=0;points=[[0,0.5],[1,0.5]];portConstraint=eastwest;top=0;left=0;right=0;bottom=0;" vertex="1" parent="zZxjoeH3hMNYsFJwBKhE-1">
          <mxGeometry y="120" width="180" height="30" as="geometry" />
        </mxCell>
        <mxCell id="zZxjoeH3hMNYsFJwBKhE-12" value="FK" style="shape=partialRectangle;connectable=0;fillColor=none;top=0;left=0;bottom=0;right=0;editable=1;overflow=hidden;whiteSpace=wrap;html=1;" vertex="1" parent="zZxjoeH3hMNYsFJwBKhE-11">
          <mxGeometry width="30" height="30" as="geometry">
            <mxRectangle width="30" height="30" as="alternateBounds" />
          </mxGeometry>
        </mxCell>
        <mxCell id="zZxjoeH3hMNYsFJwBKhE-13" value="questionId" style="shape=partialRectangle;connectable=0;fillColor=none;top=0;left=0;bottom=0;right=0;align=left;spacingLeft=6;overflow=hidden;whiteSpace=wrap;html=1;" vertex="1" parent="zZxjoeH3hMNYsFJwBKhE-11">
          <mxGeometry x="30" width="150" height="30" as="geometry">
            <mxRectangle width="150" height="30" as="alternateBounds" />
          </mxGeometry>
        </mxCell>
        <mxCell id="zZxjoeH3hMNYsFJwBKhE-14" style="shape=tableRow;horizontal=0;startSize=0;swimlaneHead=0;swimlaneBody=0;fillColor=none;collapsible=0;dropTarget=0;points=[[0,0.5],[1,0.5]];portConstraint=eastwest;top=0;left=0;right=0;bottom=0;" vertex="1" parent="zZxjoeH3hMNYsFJwBKhE-1">
          <mxGeometry y="150" width="180" height="30" as="geometry" />
        </mxCell>
        <mxCell id="zZxjoeH3hMNYsFJwBKhE-15" style="shape=partialRectangle;connectable=0;fillColor=none;top=0;left=0;bottom=0;right=0;editable=1;overflow=hidden;whiteSpace=wrap;html=1;" vertex="1" parent="zZxjoeH3hMNYsFJwBKhE-14">
          <mxGeometry width="30" height="30" as="geometry">
            <mxRectangle width="30" height="30" as="alternateBounds" />
          </mxGeometry>
        </mxCell>
        <mxCell id="zZxjoeH3hMNYsFJwBKhE-16" value="language" style="shape=partialRectangle;connectable=0;fillColor=none;top=0;left=0;bottom=0;right=0;align=left;spacingLeft=6;overflow=hidden;whiteSpace=wrap;html=1;" vertex="1" parent="zZxjoeH3hMNYsFJwBKhE-14">
          <mxGeometry x="30" width="150" height="30" as="geometry">
            <mxRectangle width="150" height="30" as="alternateBounds" />
          </mxGeometry>
        </mxCell>
        <mxCell id="zZxjoeH3hMNYsFJwBKhE-17" value="questions" style="shape=table;startSize=30;container=1;collapsible=1;childLayout=tableLayout;fixedRows=1;rowLines=0;fontStyle=1;align=center;resizeLast=1;html=1;" vertex="1" parent="1">
          <mxGeometry x="1380" y="1169" width="180" height="180" as="geometry">
            <mxRectangle x="1010" y="980" width="110" height="30" as="alternateBounds" />
          </mxGeometry>
        </mxCell>
        <mxCell id="zZxjoeH3hMNYsFJwBKhE-18" value="" style="shape=tableRow;horizontal=0;startSize=0;swimlaneHead=0;swimlaneBody=0;fillColor=none;collapsible=0;dropTarget=0;points=[[0,0.5],[1,0.5]];portConstraint=eastwest;top=0;left=0;right=0;bottom=1;" vertex="1" parent="zZxjoeH3hMNYsFJwBKhE-17">
          <mxGeometry y="30" width="180" height="30" as="geometry" />
        </mxCell>
        <mxCell id="zZxjoeH3hMNYsFJwBKhE-19" value="PK" style="shape=partialRectangle;connectable=0;fillColor=none;top=0;left=0;bottom=0;right=0;fontStyle=1;overflow=hidden;whiteSpace=wrap;html=1;" vertex="1" parent="zZxjoeH3hMNYsFJwBKhE-18">
          <mxGeometry width="30" height="30" as="geometry">
            <mxRectangle width="30" height="30" as="alternateBounds" />
          </mxGeometry>
        </mxCell>
        <mxCell id="zZxjoeH3hMNYsFJwBKhE-20" value="Id" style="shape=partialRectangle;connectable=0;fillColor=none;top=0;left=0;bottom=0;right=0;align=left;spacingLeft=6;fontStyle=5;overflow=hidden;whiteSpace=wrap;html=1;" vertex="1" parent="zZxjoeH3hMNYsFJwBKhE-18">
          <mxGeometry x="30" width="150" height="30" as="geometry">
            <mxRectangle width="150" height="30" as="alternateBounds" />
          </mxGeometry>
        </mxCell>
        <mxCell id="zZxjoeH3hMNYsFJwBKhE-21" value="" style="shape=tableRow;horizontal=0;startSize=0;swimlaneHead=0;swimlaneBody=0;fillColor=none;collapsible=0;dropTarget=0;points=[[0,0.5],[1,0.5]];portConstraint=eastwest;top=0;left=0;right=0;bottom=0;" vertex="1" parent="zZxjoeH3hMNYsFJwBKhE-17">
          <mxGeometry y="60" width="180" height="30" as="geometry" />
        </mxCell>
        <mxCell id="zZxjoeH3hMNYsFJwBKhE-22" value="" style="shape=partialRectangle;connectable=0;fillColor=none;top=0;left=0;bottom=0;right=0;editable=1;overflow=hidden;whiteSpace=wrap;html=1;" vertex="1" parent="zZxjoeH3hMNYsFJwBKhE-21">
          <mxGeometry width="30" height="30" as="geometry">
            <mxRectangle width="30" height="30" as="alternateBounds" />
          </mxGeometry>
        </mxCell>
        <mxCell id="zZxjoeH3hMNYsFJwBKhE-23" value="text" style="shape=partialRectangle;connectable=0;fillColor=none;top=0;left=0;bottom=0;right=0;align=left;spacingLeft=6;overflow=hidden;whiteSpace=wrap;html=1;" vertex="1" parent="zZxjoeH3hMNYsFJwBKhE-21">
          <mxGeometry x="30" width="150" height="30" as="geometry">
            <mxRectangle width="150" height="30" as="alternateBounds" />
          </mxGeometry>
        </mxCell>
        <mxCell id="zZxjoeH3hMNYsFJwBKhE-24" value="" style="shape=tableRow;horizontal=0;startSize=0;swimlaneHead=0;swimlaneBody=0;fillColor=none;collapsible=0;dropTarget=0;points=[[0,0.5],[1,0.5]];portConstraint=eastwest;top=0;left=0;right=0;bottom=0;" vertex="1" parent="zZxjoeH3hMNYsFJwBKhE-17">
          <mxGeometry y="90" width="180" height="30" as="geometry" />
        </mxCell>
        <mxCell id="zZxjoeH3hMNYsFJwBKhE-25" value="" style="shape=partialRectangle;connectable=0;fillColor=none;top=0;left=0;bottom=0;right=0;editable=1;overflow=hidden;whiteSpace=wrap;html=1;" vertex="1" parent="zZxjoeH3hMNYsFJwBKhE-24">
          <mxGeometry width="30" height="30" as="geometry">
            <mxRectangle width="30" height="30" as="alternateBounds" />
          </mxGeometry>
        </mxCell>
        <mxCell id="zZxjoeH3hMNYsFJwBKhE-26" value="answer" style="shape=partialRectangle;connectable=0;fillColor=none;top=0;left=0;bottom=0;right=0;align=left;spacingLeft=6;overflow=hidden;whiteSpace=wrap;html=1;" vertex="1" parent="zZxjoeH3hMNYsFJwBKhE-24">
          <mxGeometry x="30" width="150" height="30" as="geometry">
            <mxRectangle width="150" height="30" as="alternateBounds" />
          </mxGeometry>
        </mxCell>
        <mxCell id="zZxjoeH3hMNYsFJwBKhE-27" value="" style="shape=tableRow;horizontal=0;startSize=0;swimlaneHead=0;swimlaneBody=0;fillColor=none;collapsible=0;dropTarget=0;points=[[0,0.5],[1,0.5]];portConstraint=eastwest;top=0;left=0;right=0;bottom=0;" vertex="1" parent="zZxjoeH3hMNYsFJwBKhE-17">
          <mxGeometry y="120" width="180" height="30" as="geometry" />
        </mxCell>
        <mxCell id="zZxjoeH3hMNYsFJwBKhE-28" value="" style="shape=partialRectangle;connectable=0;fillColor=none;top=0;left=0;bottom=0;right=0;editable=1;overflow=hidden;whiteSpace=wrap;html=1;" vertex="1" parent="zZxjoeH3hMNYsFJwBKhE-27">
          <mxGeometry width="30" height="30" as="geometry">
            <mxRectangle width="30" height="30" as="alternateBounds" />
          </mxGeometry>
        </mxCell>
        <mxCell id="zZxjoeH3hMNYsFJwBKhE-29" value="language" style="shape=partialRectangle;connectable=0;fillColor=none;top=0;left=0;bottom=0;right=0;align=left;spacingLeft=6;overflow=hidden;whiteSpace=wrap;html=1;" vertex="1" parent="zZxjoeH3hMNYsFJwBKhE-27">
          <mxGeometry x="30" width="150" height="30" as="geometry">
            <mxRectangle width="150" height="30" as="alternateBounds" />
          </mxGeometry>
        </mxCell>
        <mxCell id="zZxjoeH3hMNYsFJwBKhE-30" style="shape=tableRow;horizontal=0;startSize=0;swimlaneHead=0;swimlaneBody=0;fillColor=none;collapsible=0;dropTarget=0;points=[[0,0.5],[1,0.5]];portConstraint=eastwest;top=0;left=0;right=0;bottom=0;" vertex="1" parent="zZxjoeH3hMNYsFJwBKhE-17">
          <mxGeometry y="150" width="180" height="30" as="geometry" />
        </mxCell>
        <mxCell id="zZxjoeH3hMNYsFJwBKhE-31" style="shape=partialRectangle;connectable=0;fillColor=none;top=0;left=0;bottom=0;right=0;editable=1;overflow=hidden;whiteSpace=wrap;html=1;" vertex="1" parent="zZxjoeH3hMNYsFJwBKhE-30">
          <mxGeometry width="30" height="30" as="geometry">
            <mxRectangle width="30" height="30" as="alternateBounds" />
          </mxGeometry>
        </mxCell>
        <mxCell id="zZxjoeH3hMNYsFJwBKhE-32" value="category" style="shape=partialRectangle;connectable=0;fillColor=none;top=0;left=0;bottom=0;right=0;align=left;spacingLeft=6;overflow=hidden;whiteSpace=wrap;html=1;" vertex="1" parent="zZxjoeH3hMNYsFJwBKhE-30">
          <mxGeometry x="30" width="150" height="30" as="geometry">
            <mxRectangle width="150" height="30" as="alternateBounds" />
          </mxGeometry>
        </mxCell>
        <mxCell id="zZxjoeH3hMNYsFJwBKhE-33" value="users" style="shape=table;startSize=30;container=1;collapsible=1;childLayout=tableLayout;fixedRows=1;rowLines=0;fontStyle=1;align=center;resizeLast=1;html=1;" vertex="1" parent="1">
          <mxGeometry x="1040" y="1000" width="180" height="150" as="geometry">
            <mxRectangle x="1010" y="980" width="110" height="30" as="alternateBounds" />
          </mxGeometry>
        </mxCell>
        <mxCell id="zZxjoeH3hMNYsFJwBKhE-34" value="" style="shape=tableRow;horizontal=0;startSize=0;swimlaneHead=0;swimlaneBody=0;fillColor=none;collapsible=0;dropTarget=0;points=[[0,0.5],[1,0.5]];portConstraint=eastwest;top=0;left=0;right=0;bottom=1;" vertex="1" parent="zZxjoeH3hMNYsFJwBKhE-33">
          <mxGeometry y="30" width="180" height="30" as="geometry" />
        </mxCell>
        <mxCell id="zZxjoeH3hMNYsFJwBKhE-35" value="PK" style="shape=partialRectangle;connectable=0;fillColor=none;top=0;left=0;bottom=0;right=0;fontStyle=1;overflow=hidden;whiteSpace=wrap;html=1;" vertex="1" parent="zZxjoeH3hMNYsFJwBKhE-34">
          <mxGeometry width="30" height="30" as="geometry">
            <mxRectangle width="30" height="30" as="alternateBounds" />
          </mxGeometry>
        </mxCell>
        <mxCell id="zZxjoeH3hMNYsFJwBKhE-36" value="Id" style="shape=partialRectangle;connectable=0;fillColor=none;top=0;left=0;bottom=0;right=0;align=left;spacingLeft=6;fontStyle=5;overflow=hidden;whiteSpace=wrap;html=1;" vertex="1" parent="zZxjoeH3hMNYsFJwBKhE-34">
          <mxGeometry x="30" width="150" height="30" as="geometry">
            <mxRectangle width="150" height="30" as="alternateBounds" />
          </mxGeometry>
        </mxCell>
        <mxCell id="zZxjoeH3hMNYsFJwBKhE-37" value="" style="shape=tableRow;horizontal=0;startSize=0;swimlaneHead=0;swimlaneBody=0;fillColor=none;collapsible=0;dropTarget=0;points=[[0,0.5],[1,0.5]];portConstraint=eastwest;top=0;left=0;right=0;bottom=0;" vertex="1" parent="zZxjoeH3hMNYsFJwBKhE-33">
          <mxGeometry y="60" width="180" height="30" as="geometry" />
        </mxCell>
        <mxCell id="zZxjoeH3hMNYsFJwBKhE-38" value="" style="shape=partialRectangle;connectable=0;fillColor=none;top=0;left=0;bottom=0;right=0;editable=1;overflow=hidden;whiteSpace=wrap;html=1;" vertex="1" parent="zZxjoeH3hMNYsFJwBKhE-37">
          <mxGeometry width="30" height="30" as="geometry">
            <mxRectangle width="30" height="30" as="alternateBounds" />
          </mxGeometry>
        </mxCell>
        <mxCell id="zZxjoeH3hMNYsFJwBKhE-39" value="email" style="shape=partialRectangle;connectable=0;fillColor=none;top=0;left=0;bottom=0;right=0;align=left;spacingLeft=6;overflow=hidden;whiteSpace=wrap;html=1;" vertex="1" parent="zZxjoeH3hMNYsFJwBKhE-37">
          <mxGeometry x="30" width="150" height="30" as="geometry">
            <mxRectangle width="150" height="30" as="alternateBounds" />
          </mxGeometry>
        </mxCell>
        <mxCell id="zZxjoeH3hMNYsFJwBKhE-40" value="" style="shape=tableRow;horizontal=0;startSize=0;swimlaneHead=0;swimlaneBody=0;fillColor=none;collapsible=0;dropTarget=0;points=[[0,0.5],[1,0.5]];portConstraint=eastwest;top=0;left=0;right=0;bottom=0;" vertex="1" parent="zZxjoeH3hMNYsFJwBKhE-33">
          <mxGeometry y="90" width="180" height="30" as="geometry" />
        </mxCell>
        <mxCell id="zZxjoeH3hMNYsFJwBKhE-41" value="" style="shape=partialRectangle;connectable=0;fillColor=none;top=0;left=0;bottom=0;right=0;editable=1;overflow=hidden;whiteSpace=wrap;html=1;" vertex="1" parent="zZxjoeH3hMNYsFJwBKhE-40">
          <mxGeometry width="30" height="30" as="geometry">
            <mxRectangle width="30" height="30" as="alternateBounds" />
          </mxGeometry>
        </mxCell>
        <mxCell id="zZxjoeH3hMNYsFJwBKhE-42" value="password" style="shape=partialRectangle;connectable=0;fillColor=none;top=0;left=0;bottom=0;right=0;align=left;spacingLeft=6;overflow=hidden;whiteSpace=wrap;html=1;" vertex="1" parent="zZxjoeH3hMNYsFJwBKhE-40">
          <mxGeometry x="30" width="150" height="30" as="geometry">
            <mxRectangle width="150" height="30" as="alternateBounds" />
          </mxGeometry>
        </mxCell>
        <mxCell id="zZxjoeH3hMNYsFJwBKhE-43" value="" style="shape=tableRow;horizontal=0;startSize=0;swimlaneHead=0;swimlaneBody=0;fillColor=none;collapsible=0;dropTarget=0;points=[[0,0.5],[1,0.5]];portConstraint=eastwest;top=0;left=0;right=0;bottom=0;" vertex="1" parent="zZxjoeH3hMNYsFJwBKhE-33">
          <mxGeometry y="120" width="180" height="30" as="geometry" />
        </mxCell>
        <mxCell id="zZxjoeH3hMNYsFJwBKhE-44" value="FK" style="shape=partialRectangle;connectable=0;fillColor=none;top=0;left=0;bottom=0;right=0;editable=1;overflow=hidden;whiteSpace=wrap;html=1;" vertex="1" parent="zZxjoeH3hMNYsFJwBKhE-43">
          <mxGeometry width="30" height="30" as="geometry">
            <mxRectangle width="30" height="30" as="alternateBounds" />
          </mxGeometry>
        </mxCell>
        <mxCell id="zZxjoeH3hMNYsFJwBKhE-45" value="roleId" style="shape=partialRectangle;connectable=0;fillColor=none;top=0;left=0;bottom=0;right=0;align=left;spacingLeft=6;overflow=hidden;whiteSpace=wrap;html=1;" vertex="1" parent="zZxjoeH3hMNYsFJwBKhE-43">
          <mxGeometry x="30" width="150" height="30" as="geometry">
            <mxRectangle width="150" height="30" as="alternateBounds" />
          </mxGeometry>
        </mxCell>
        <mxCell id="zZxjoeH3hMNYsFJwBKhE-46" value="roles" style="shape=table;startSize=30;container=1;collapsible=1;childLayout=tableLayout;fixedRows=1;rowLines=0;fontStyle=1;align=center;resizeLast=1;html=1;" vertex="1" parent="1">
          <mxGeometry x="1040" y="1180" width="180" height="120" as="geometry">
            <mxRectangle x="1010" y="980" width="110" height="30" as="alternateBounds" />
          </mxGeometry>
        </mxCell>
        <mxCell id="zZxjoeH3hMNYsFJwBKhE-47" value="" style="shape=tableRow;horizontal=0;startSize=0;swimlaneHead=0;swimlaneBody=0;fillColor=none;collapsible=0;dropTarget=0;points=[[0,0.5],[1,0.5]];portConstraint=eastwest;top=0;left=0;right=0;bottom=1;" vertex="1" parent="zZxjoeH3hMNYsFJwBKhE-46">
          <mxGeometry y="30" width="180" height="30" as="geometry" />
        </mxCell>
        <mxCell id="zZxjoeH3hMNYsFJwBKhE-48" value="PK" style="shape=partialRectangle;connectable=0;fillColor=none;top=0;left=0;bottom=0;right=0;fontStyle=1;overflow=hidden;whiteSpace=wrap;html=1;" vertex="1" parent="zZxjoeH3hMNYsFJwBKhE-47">
          <mxGeometry width="30" height="30" as="geometry">
            <mxRectangle width="30" height="30" as="alternateBounds" />
          </mxGeometry>
        </mxCell>
        <mxCell id="zZxjoeH3hMNYsFJwBKhE-49" value="Id" style="shape=partialRectangle;connectable=0;fillColor=none;top=0;left=0;bottom=0;right=0;align=left;spacingLeft=6;fontStyle=5;overflow=hidden;whiteSpace=wrap;html=1;" vertex="1" parent="zZxjoeH3hMNYsFJwBKhE-47">
          <mxGeometry x="30" width="150" height="30" as="geometry">
            <mxRectangle width="150" height="30" as="alternateBounds" />
          </mxGeometry>
        </mxCell>
        <mxCell id="zZxjoeH3hMNYsFJwBKhE-50" value="" style="shape=tableRow;horizontal=0;startSize=0;swimlaneHead=0;swimlaneBody=0;fillColor=none;collapsible=0;dropTarget=0;points=[[0,0.5],[1,0.5]];portConstraint=eastwest;top=0;left=0;right=0;bottom=0;" vertex="1" parent="zZxjoeH3hMNYsFJwBKhE-46">
          <mxGeometry y="60" width="180" height="30" as="geometry" />
        </mxCell>
        <mxCell id="zZxjoeH3hMNYsFJwBKhE-51" value="" style="shape=partialRectangle;connectable=0;fillColor=none;top=0;left=0;bottom=0;right=0;editable=1;overflow=hidden;whiteSpace=wrap;html=1;" vertex="1" parent="zZxjoeH3hMNYsFJwBKhE-50">
          <mxGeometry width="30" height="30" as="geometry">
            <mxRectangle width="30" height="30" as="alternateBounds" />
          </mxGeometry>
        </mxCell>
        <mxCell id="zZxjoeH3hMNYsFJwBKhE-52" value="name" style="shape=partialRectangle;connectable=0;fillColor=none;top=0;left=0;bottom=0;right=0;align=left;spacingLeft=6;overflow=hidden;whiteSpace=wrap;html=1;" vertex="1" parent="zZxjoeH3hMNYsFJwBKhE-50">
          <mxGeometry x="30" width="150" height="30" as="geometry">
            <mxRectangle width="150" height="30" as="alternateBounds" />
          </mxGeometry>
        </mxCell>
        <mxCell id="zZxjoeH3hMNYsFJwBKhE-53" value="" style="shape=tableRow;horizontal=0;startSize=0;swimlaneHead=0;swimlaneBody=0;fillColor=none;collapsible=0;dropTarget=0;points=[[0,0.5],[1,0.5]];portConstraint=eastwest;top=0;left=0;right=0;bottom=0;" vertex="1" parent="zZxjoeH3hMNYsFJwBKhE-46">
          <mxGeometry y="90" width="180" height="30" as="geometry" />
        </mxCell>
        <mxCell id="zZxjoeH3hMNYsFJwBKhE-54" value="" style="shape=partialRectangle;connectable=0;fillColor=none;top=0;left=0;bottom=0;right=0;editable=1;overflow=hidden;whiteSpace=wrap;html=1;" vertex="1" parent="zZxjoeH3hMNYsFJwBKhE-53">
          <mxGeometry width="30" height="30" as="geometry">
            <mxRectangle width="30" height="30" as="alternateBounds" />
          </mxGeometry>
        </mxCell>
        <mxCell id="zZxjoeH3hMNYsFJwBKhE-55" value="description" style="shape=partialRectangle;connectable=0;fillColor=none;top=0;left=0;bottom=0;right=0;align=left;spacingLeft=6;overflow=hidden;whiteSpace=wrap;html=1;" vertex="1" parent="zZxjoeH3hMNYsFJwBKhE-53">
          <mxGeometry x="30" width="150" height="30" as="geometry">
            <mxRectangle width="150" height="30" as="alternateBounds" />
          </mxGeometry>
        </mxCell>
        <mxCell id="zZxjoeH3hMNYsFJwBKhE-56" style="edgeStyle=orthogonalEdgeStyle;rounded=0;orthogonalLoop=1;jettySize=auto;html=1;entryX=0;entryY=0.5;entryDx=0;entryDy=0;startArrow=ERmandOne;startFill=0;endArrow=ERmany;endFill=0;" edge="1" parent="1" source="zZxjoeH3hMNYsFJwBKhE-43" target="zZxjoeH3hMNYsFJwBKhE-47">
          <mxGeometry relative="1" as="geometry" />
        </mxCell>
        <mxCell id="zZxjoeH3hMNYsFJwBKhE-57" style="edgeStyle=orthogonalEdgeStyle;rounded=0;orthogonalLoop=1;jettySize=auto;html=1;entryX=0;entryY=0.5;entryDx=0;entryDy=0;endArrow=ERmany;endFill=0;startArrow=ERmandOne;startFill=0;" edge="1" parent="1" source="zZxjoeH3hMNYsFJwBKhE-11" target="zZxjoeH3hMNYsFJwBKhE-18">
          <mxGeometry relative="1" as="geometry" />
        </mxCell>
        <mxCell id="zZxjoeH3hMNYsFJwBKhE-58" value="" style="rounded=1;whiteSpace=wrap;html=1;" vertex="1" parent="1">
          <mxGeometry x="1240" y="900" width="120" height="60" as="geometry" />
        </mxCell>
        <mxCell id="zZxjoeH3hMNYsFJwBKhE-59" value="" style="rounded=0;whiteSpace=wrap;html=1;" vertex="1" parent="1">
          <mxGeometry x="860" y="1130" width="120" height="60" as="geometry" />
        </mxCell>
        <mxCell id="zZxjoeH3hMNYsFJwBKhE-60" value="" style="rounded=0;whiteSpace=wrap;html=1;" vertex="1" parent="1">
          <mxGeometry x="1220" y="1370" width="120" height="60" as="geometry" />
        </mxCell>
        <mxCell id="zZxjoeH3hMNYsFJwBKhE-61" value="" style="rounded=0;whiteSpace=wrap;html=1;" vertex="1" parent="1">
          <mxGeometry x="1590" y="1139" width="120" height="60" as="geometry" />
        </mxCell>
      </root>
    </mxGraphModel>
  </diagram>
  <diagram id="WXdn5FAf8LF30NPDN9eJ" name="діаграма використання">
    <mxGraphModel dx="3034" dy="1952" grid="1" gridSize="10" guides="1" tooltips="1" connect="1" arrows="1" fold="1" page="1" pageScale="1" pageWidth="827" pageHeight="1169" math="0" shadow="0">
      <root>
        <mxCell id="0" />
        <mxCell id="1" parent="0" />
        <mxCell id="ZqY-XMhBHESakoqqb8ci-1" value="Відвідувач&lt;div&gt;&lt;br&gt;&lt;/div&gt;" style="shape=umlActor;verticalLabelPosition=bottom;verticalAlign=top;html=1;outlineConnect=0;" vertex="1" parent="1">
          <mxGeometry x="-790" y="460" width="30" height="60" as="geometry" />
        </mxCell>
        <mxCell id="ZqY-XMhBHESakoqqb8ci-2" value="Користувач" style="shape=umlActor;verticalLabelPosition=bottom;verticalAlign=top;html=1;outlineConnect=0;" vertex="1" parent="1">
          <mxGeometry x="-780" y="140" width="30" height="60" as="geometry" />
        </mxCell>
        <mxCell id="ZqY-XMhBHESakoqqb8ci-3" value="Адміністратор" style="shape=umlActor;verticalLabelPosition=bottom;verticalAlign=top;html=1;outlineConnect=0;" vertex="1" parent="1">
          <mxGeometry x="-280" y="320" width="30" height="60" as="geometry" />
        </mxCell>
        <mxCell id="ZqY-XMhBHESakoqqb8ci-4" value="Перегляд питань та турнірів" style="ellipse;whiteSpace=wrap;html=1;strokeColor=default;" vertex="1" parent="1">
          <mxGeometry x="-580" y="380" width="120" height="80" as="geometry" />
        </mxCell>
        <mxCell id="ZqY-XMhBHESakoqqb8ci-5" value="Вхід та реєстрація&amp;nbsp;" style="ellipse;whiteSpace=wrap;html=1;" vertex="1" parent="1">
          <mxGeometry x="-595" y="520" width="120" height="80" as="geometry" />
        </mxCell>
        <mxCell id="ZqY-XMhBHESakoqqb8ci-6" value="Додавання турніру" style="ellipse;whiteSpace=wrap;html=1;" vertex="1" parent="1">
          <mxGeometry x="-533" y="50" width="120" height="80" as="geometry" />
        </mxCell>
        <mxCell id="ZqY-XMhBHESakoqqb8ci-7" value="Модерування турніру" style="ellipse;whiteSpace=wrap;html=1;" vertex="1" parent="1">
          <mxGeometry x="-460" y="435" width="120" height="80" as="geometry" />
        </mxCell>
        <mxCell id="ZqY-XMhBHESakoqqb8ci-8" value="Видалення та підвищення користувачів у правах" style="ellipse;whiteSpace=wrap;html=1;" vertex="1" parent="1">
          <mxGeometry x="-370" y="505" width="120" height="80" as="geometry" />
        </mxCell>
        <mxCell id="ZqY-XMhBHESakoqqb8ci-9" value="Генерація пакету питань" style="ellipse;whiteSpace=wrap;html=1;" vertex="1" parent="1">
          <mxGeometry x="-570" y="170" width="120" height="80" as="geometry" />
        </mxCell>
        <mxCell id="ZqY-XMhBHESakoqqb8ci-10" value="Зміна налаштувань платформи" style="ellipse;whiteSpace=wrap;html=1;" vertex="1" parent="1">
          <mxGeometry x="-570" y="280" width="120" height="80" as="geometry" />
        </mxCell>
        <mxCell id="ZqY-XMhBHESakoqqb8ci-11" value="" style="endArrow=open;html=1;rounded=0;entryX=0;entryY=0.5;entryDx=0;entryDy=0;endFill=0;" edge="1" parent="1" source="ZqY-XMhBHESakoqqb8ci-1" target="ZqY-XMhBHESakoqqb8ci-4">
          <mxGeometry width="50" height="50" relative="1" as="geometry">
            <mxPoint x="-710" y="480" as="sourcePoint" />
            <mxPoint x="-600" y="390" as="targetPoint" />
          </mxGeometry>
        </mxCell>
        <mxCell id="ZqY-XMhBHESakoqqb8ci-12" value="" style="endArrow=open;html=1;rounded=0;entryX=0;entryY=0.313;entryDx=0;entryDy=0;entryPerimeter=0;endFill=0;" edge="1" parent="1" source="ZqY-XMhBHESakoqqb8ci-2" target="ZqY-XMhBHESakoqqb8ci-6">
          <mxGeometry width="50" height="50" relative="1" as="geometry">
            <mxPoint x="-650" y="160" as="sourcePoint" />
            <mxPoint x="-370" y="160" as="targetPoint" />
          </mxGeometry>
        </mxCell>
        <mxCell id="ZqY-XMhBHESakoqqb8ci-13" value="" style="endArrow=open;html=1;rounded=0;entryX=0;entryY=0.5;entryDx=0;entryDy=0;endFill=0;" edge="1" parent="1" source="ZqY-XMhBHESakoqqb8ci-2" target="ZqY-XMhBHESakoqqb8ci-4">
          <mxGeometry width="50" height="50" relative="1" as="geometry">
            <mxPoint x="-670" y="220" as="sourcePoint" />
            <mxPoint x="-540" y="215" as="targetPoint" />
          </mxGeometry>
        </mxCell>
        <mxCell id="ZqY-XMhBHESakoqqb8ci-14" value="" style="endArrow=open;html=1;rounded=0;endFill=0;" edge="1" parent="1" source="ZqY-XMhBHESakoqqb8ci-2" target="ZqY-XMhBHESakoqqb8ci-9">
          <mxGeometry width="50" height="50" relative="1" as="geometry">
            <mxPoint x="-640" y="160" as="sourcePoint" />
            <mxPoint x="-715" y="360" as="targetPoint" />
          </mxGeometry>
        </mxCell>
        <mxCell id="ZqY-XMhBHESakoqqb8ci-15" value="" style="endArrow=open;html=1;rounded=0;entryX=0;entryY=0.5;entryDx=0;entryDy=0;endFill=0;" edge="1" parent="1" source="ZqY-XMhBHESakoqqb8ci-1" target="ZqY-XMhBHESakoqqb8ci-5">
          <mxGeometry width="50" height="50" relative="1" as="geometry">
            <mxPoint x="-730" y="480" as="sourcePoint" />
            <mxPoint x="-585" y="320" as="targetPoint" />
          </mxGeometry>
        </mxCell>
        <mxCell id="ZqY-XMhBHESakoqqb8ci-16" value="" style="endArrow=open;html=1;rounded=0;entryX=1;entryY=0.5;entryDx=0;entryDy=0;endFill=0;" edge="1" parent="1" source="ZqY-XMhBHESakoqqb8ci-3" target="ZqY-XMhBHESakoqqb8ci-6">
          <mxGeometry width="50" height="50" relative="1" as="geometry">
            <mxPoint x="-320" y="310" as="sourcePoint" />
            <mxPoint x="-552" y="200" as="targetPoint" />
          </mxGeometry>
        </mxCell>
        <mxCell id="ZqY-XMhBHESakoqqb8ci-17" value="" style="endArrow=open;html=1;rounded=0;entryX=1;entryY=0.5;entryDx=0;entryDy=0;endFill=0;" edge="1" parent="1" source="ZqY-XMhBHESakoqqb8ci-3" target="ZqY-XMhBHESakoqqb8ci-9">
          <mxGeometry width="50" height="50" relative="1" as="geometry">
            <mxPoint x="-310" y="320" as="sourcePoint" />
            <mxPoint x="-403" y="100" as="targetPoint" />
          </mxGeometry>
        </mxCell>
        <mxCell id="ZqY-XMhBHESakoqqb8ci-18" value="" style="endArrow=open;html=1;rounded=0;entryX=1;entryY=0.5;entryDx=0;entryDy=0;endFill=0;" edge="1" parent="1" source="ZqY-XMhBHESakoqqb8ci-3" target="ZqY-XMhBHESakoqqb8ci-4">
          <mxGeometry width="50" height="50" relative="1" as="geometry">
            <mxPoint x="-300" y="330" as="sourcePoint" />
            <mxPoint x="-440" y="220" as="targetPoint" />
          </mxGeometry>
        </mxCell>
        <mxCell id="ZqY-XMhBHESakoqqb8ci-19" value="" style="endArrow=open;html=1;rounded=0;entryX=1;entryY=0.5;entryDx=0;entryDy=0;endFill=0;exitX=0;exitY=0.3333333333333333;exitDx=0;exitDy=0;exitPerimeter=0;" edge="1" parent="1" source="ZqY-XMhBHESakoqqb8ci-3" target="ZqY-XMhBHESakoqqb8ci-10">
          <mxGeometry width="50" height="50" relative="1" as="geometry">
            <mxPoint x="-320" y="330" as="sourcePoint" />
            <mxPoint x="-465" y="320" as="targetPoint" />
          </mxGeometry>
        </mxCell>
        <mxCell id="ZqY-XMhBHESakoqqb8ci-20" value="" style="endArrow=open;html=1;rounded=0;entryX=0.833;entryY=0.075;entryDx=0;entryDy=0;entryPerimeter=0;endFill=0;" edge="1" parent="1" source="ZqY-XMhBHESakoqqb8ci-3" target="ZqY-XMhBHESakoqqb8ci-7">
          <mxGeometry width="50" height="50" relative="1" as="geometry">
            <mxPoint x="-320" y="380" as="sourcePoint" />
            <mxPoint x="-465" y="420" as="targetPoint" />
          </mxGeometry>
        </mxCell>
        <mxCell id="ZqY-XMhBHESakoqqb8ci-21" value="" style="endArrow=open;html=1;rounded=0;endFill=0;" edge="1" parent="1" source="ZqY-XMhBHESakoqqb8ci-3" target="ZqY-XMhBHESakoqqb8ci-8">
          <mxGeometry width="50" height="50" relative="1" as="geometry">
            <mxPoint x="-290" y="390" as="sourcePoint" />
            <mxPoint x="-363" y="451" as="targetPoint" />
          </mxGeometry>
        </mxCell>
        <mxCell id="ZqY-XMhBHESakoqqb8ci-22" value="" style="endArrow=open;html=1;rounded=0;endFill=0;" edge="1" parent="1" source="ZqY-XMhBHESakoqqb8ci-2" target="ZqY-XMhBHESakoqqb8ci-10">
          <mxGeometry width="50" height="50" relative="1" as="geometry">
            <mxPoint x="-630" y="190" as="sourcePoint" />
            <mxPoint x="-585" y="320" as="targetPoint" />
          </mxGeometry>
        </mxCell>
        <mxCell id="ZqY-XMhBHESakoqqb8ci-23" value="" style="endArrow=open;html=1;rounded=0;entryX=0;entryY=0.5;entryDx=0;entryDy=0;endFill=0;" edge="1" parent="1" source="ZqY-XMhBHESakoqqb8ci-1" target="ZqY-XMhBHESakoqqb8ci-10">
          <mxGeometry width="50" height="50" relative="1" as="geometry">
            <mxPoint x="-730" y="480" as="sourcePoint" />
            <mxPoint x="-580" y="470" as="targetPoint" />
          </mxGeometry>
        </mxCell>
        <mxCell id="ZqY-XMhBHESakoqqb8ci-24" value="" style="rounded=0;whiteSpace=wrap;html=1;" vertex="1" parent="1">
          <mxGeometry x="-950" y="300" width="120" height="60" as="geometry" />
        </mxCell>
        <mxCell id="ZqY-XMhBHESakoqqb8ci-25" value="" style="rounded=0;whiteSpace=wrap;html=1;" vertex="1" parent="1">
          <mxGeometry x="-570" y="620" width="120" height="60" as="geometry" />
        </mxCell>
        <mxCell id="ZqY-XMhBHESakoqqb8ci-26" value="" style="rounded=0;whiteSpace=wrap;html=1;" vertex="1" parent="1">
          <mxGeometry x="-210" y="320" width="120" height="60" as="geometry" />
        </mxCell>
        <mxCell id="ZqY-XMhBHESakoqqb8ci-27" value="" style="rounded=0;whiteSpace=wrap;html=1;" vertex="1" parent="1">
          <mxGeometry x="-600" y="-20" width="120" height="60" as="geometry" />
        </mxCell>
      </root>
    </mxGraphModel>
  </diagram>
</mxfile>
